<?xml version="1.0" encoding="utf-8" standalone="no"?>
<!DOCTYPE svg PUBLIC "-//W3C//DTD SVG 1.1//EN"
  "http://www.w3.org/Graphics/SVG/1.1/DTD/svg11.dtd">
<svg xmlns:xlink="http://www.w3.org/1999/xlink" width="490.79952pt" height="191.99952pt" viewBox="0 0 490.79952 191.99952" xmlns="http://www.w3.org/2000/svg" version="1.1">
 <metadata>
  <rdf:RDF xmlns:dc="http://purl.org/dc/elements/1.1/" xmlns:cc="http://creativecommons.org/ns#" xmlns:rdf="http://www.w3.org/1999/02/22-rdf-syntax-ns#">
   <cc:Work>
    <dc:type rdf:resource="http://purl.org/dc/dcmitype/StillImage"/>
    <dc:date>2026-06-04T03:19:07.394749</dc:date>
    <dc:format>image/svg+xml</dc:format>
    <dc:creator>
     <cc:Agent>
      <dc:title>Matplotlib v3.10.3, https://matplotlib.org/</dc:title>
     </cc:Agent>
    </dc:creator>
   </cc:Work>
  </rdf:RDF>
 </metadata>
 <defs>
  <style type="text/css">*{stroke-linejoin: round; stroke-linecap: butt}</style>
 </defs>
 <g id="figure_1">
  <g id="patch_1">
   <path d="M 0 191.99952 
L 490.79952 191.99952 
L 490.79952 0 
L 0 0 
z
" style="fill: #ffffff"/>
  </g>
  <g id="axes_1">
   <g id="patch_2">
    <path d="M 50.14375 154.44327 
L 242.39952 154.44327 
L 242.39952 36.88448 
L 50.14375 36.88448 
z
" style="fill: #ffffff"/>
   </g>
   <g id="patch_3">
    <path d="M 58.882649 154.44327 
L 58.882649 154.44327 
L 64.520648 154.44327 
L 64.520648 154.44327 
L 70.158647 154.44327 
L 70.158647 154.44327 
L 75.796646 154.44327 
L 75.796646 154.44327 
L 81.434645 154.44327 
L 81.434645 153.542282 
L 87.072644 153.542282 
L 87.072644 149.938332 
L 92.710643 149.938332 
L 92.710643 148.136356 
L 98.348642 148.136356 
L 98.348642 138.225491 
L 103.986642 138.225491 
L 103.986642 145.433393 
L 109.624641 145.433393 
L 109.624641 142.73043 
L 115.26264 142.73043 
L 115.26264 142.73043 
L 120.900639 142.73043 
L 120.900639 143.631418 
L 126.538638 143.631418 
L 126.538638 142.73043 
L 132.176637 142.73043 
L 132.176637 138.225491 
L 137.814636 138.225491 
L 137.814636 135.522528 
L 143.452635 135.522528 
L 143.452635 140.928455 
L 149.090635 140.928455 
L 149.090635 140.928455 
L 154.728634 140.928455 
L 154.728634 138.225491 
L 160.366633 138.225491 
L 160.366633 134.621541 
L 166.004632 134.621541 
L 166.004632 123.809688 
L 171.642631 123.809688 
L 171.642631 102.185983 
L 177.28063 102.185983 
L 177.28063 98.582033 
L 182.918629 98.582033 
L 182.918629 103.086971 
L 188.556628 103.086971 
L 188.556628 105.789934 
L 194.194628 105.789934 
L 194.194628 95.87907 
L 199.832627 95.87907 
L 199.832627 85.067217 
L 205.470626 85.067217 
L 205.470626 110.294873 
L 211.108625 110.294873 
L 211.108625 115.700799 
L 216.746624 115.700799 
L 216.746624 140.928455 
L 222.384623 140.928455 
L 222.384623 153.542282 
L 228.022622 153.542282 
L 228.022622 154.44327 
L 233.660621 154.44327 
L 233.660621 154.44327 
L 228.022622 154.44327 
L 228.022622 154.44327 
L 222.384623 154.44327 
L 222.384623 154.44327 
L 216.746624 154.44327 
L 216.746624 154.44327 
L 211.108625 154.44327 
L 211.108625 154.44327 
L 205.470626 154.44327 
L 205.470626 154.44327 
L 199.832627 154.44327 
L 199.832627 154.44327 
L 194.194628 154.44327 
L 194.194628 154.44327 
L 188.556628 154.44327 
L 188.556628 154.44327 
L 182.918629 154.44327 
L 182.918629 154.44327 
L 177.28063 154.44327 
L 177.28063 154.44327 
L 171.642631 154.44327 
L 171.642631 154.44327 
L 166.004632 154.44327 
L 166.004632 154.44327 
L 160.366633 154.44327 
L 160.366633 154.44327 
L 154.728634 154.44327 
L 154.728634 154.44327 
L 149.090635 154.44327 
L 149.090635 154.44327 
L 143.452635 154.44327 
L 143.452635 154.44327 
L 137.814636 154.44327 
L 137.814636 154.44327 
L 132.176637 154.44327 
L 132.176637 154.44327 
L 126.538638 154.44327 
L 126.538638 154.44327 
L 120.900639 154.44327 
L 120.900639 154.44327 
L 115.26264 154.44327 
L 115.26264 154.44327 
L 109.624641 154.44327 
L 109.624641 154.44327 
L 103.986642 154.44327 
L 103.986642 154.44327 
L 98.348642 154.44327 
L 98.348642 154.44327 
L 92.710643 154.44327 
L 92.710643 154.44327 
L 87.072644 154.44327 
L 87.072644 154.44327 
L 81.434645 154.44327 
L 81.434645 154.44327 
L 75.796646 154.44327 
L 75.796646 154.44327 
L 70.158647 154.44327 
L 70.158647 154.44327 
L 64.520648 154.44327 
L 64.520648 154.44327 
z
" clip-path="url(#p97ee0637ae)" style="fill: #16a34a; opacity: 0.22"/>
   </g>
   <g id="patch_4">
    <path d="M 58.882649 154.44327 
L 58.882649 154.44327 
L 64.520648 154.44327 
L 64.520648 154.44327 
L 70.158647 154.44327 
L 70.158647 154.44327 
L 75.796646 154.44327 
L 75.796646 154.44327 
L 81.434645 154.44327 
L 81.434645 154.44327 
L 87.072644 154.44327 
L 87.072644 149.111806 
L 92.710643 149.111806 
L 92.710643 154.44327 
L 98.348642 154.44327 
L 98.348642 154.44327 
L 103.986642 154.44327 
L 103.986642 154.44327 
L 109.624641 154.44327 
L 109.624641 154.44327 
L 115.26264 154.44327 
L 115.26264 154.44327 
L 120.900639 154.44327 
L 120.900639 149.111806 
L 126.538638 149.111806 
L 126.538638 149.111806 
L 132.176637 149.111806 
L 132.176637 149.111806 
L 137.814636 149.111806 
L 137.814636 138.448877 
L 143.452635 138.448877 
L 143.452635 138.448877 
L 149.090635 138.448877 
L 149.090635 138.448877 
L 154.728634 138.448877 
L 154.728634 143.780341 
L 160.366633 143.780341 
L 160.366633 127.785948 
L 166.004632 127.785948 
L 166.004632 133.117412 
L 171.642631 133.117412 
L 171.642631 79.802768 
L 177.28063 79.802768 
L 177.28063 106.46009 
L 182.918629 106.46009 
L 182.918629 106.46009 
L 188.556628 106.46009 
L 188.556628 111.791555 
L 194.194628 111.791555 
L 194.194628 95.797162 
L 199.832627 95.797162 
L 199.832627 42.482518 
L 205.470626 42.482518 
L 205.470626 106.46009 
L 211.108625 106.46009 
L 211.108625 90.465697 
L 216.746624 90.465697 
L 216.746624 133.117412 
L 222.384623 133.117412 
L 222.384623 154.44327 
L 228.022622 154.44327 
L 228.022622 154.44327 
L 233.660621 154.44327 
L 233.660621 154.44327 
L 228.022622 154.44327 
L 228.022622 154.44327 
L 222.384623 154.44327 
L 222.384623 154.44327 
L 216.746624 154.44327 
L 216.746624 154.44327 
L 211.108625 154.44327 
L 211.108625 154.44327 
L 205.470626 154.44327 
L 205.470626 154.44327 
L 199.832627 154.44327 
L 199.832627 154.44327 
L 194.194628 154.44327 
L 194.194628 154.44327 
L 188.556628 154.44327 
L 188.556628 154.44327 
L 182.918629 154.44327 
L 182.918629 154.44327 
L 177.28063 154.44327 
L 177.28063 154.44327 
L 171.642631 154.44327 
L 171.642631 154.44327 
L 166.004632 154.44327 
L 166.004632 154.44327 
L 160.366633 154.44327 
L 160.366633 154.44327 
L 154.728634 154.44327 
L 154.728634 154.44327 
L 149.090635 154.44327 
L 149.090635 154.44327 
L 143.452635 154.44327 
L 143.452635 154.44327 
L 137.814636 154.44327 
L 137.814636 154.44327 
L 132.176637 154.44327 
L 132.176637 154.44327 
L 126.538638 154.44327 
L 126.538638 154.44327 
L 120.900639 154.44327 
L 120.900639 154.44327 
L 115.26264 154.44327 
L 115.26264 154.44327 
L 109.624641 154.44327 
L 109.624641 154.44327 
L 103.986642 154.44327 
L 103.986642 154.44327 
L 98.348642 154.44327 
L 98.348642 154.44327 
L 92.710643 154.44327 
L 92.710643 154.44327 
L 87.072644 154.44327 
L 87.072644 154.44327 
L 81.434645 154.44327 
L 81.434645 154.44327 
L 75.796646 154.44327 
L 75.796646 154.44327 
L 70.158647 154.44327 
L 70.158647 154.44327 
L 64.520648 154.44327 
L 64.520648 154.44327 
z
" clip-path="url(#p97ee0637ae)" style="fill: #dc2626; opacity: 0.22"/>
   </g>
   <g id="matplotlib.axis_1">
    <g id="xtick_1">
     <g id="line2d_1">
      <defs>
       <path id="m49055690c1" d="M 0 0 
L 0 3.5 
" style="stroke: #000000; stroke-width: 0.8"/>
      </defs>
      <g>
       <use xlink:href="#m49055690c1" x="106.549368" y="154.44327" style="stroke: #000000; stroke-width: 0.8"/>
      </g>
     </g>
     <g id="text_1">
      <!-- 0.6 -->
      <g transform="translate(98.597806 169.041708) scale(0.1 -0.1)">
       <defs>
        <path id="DejaVuSans-30" d="M 2034 4250 
Q 1547 4250 1301 3770 
Q 1056 3291 1056 2328 
Q 1056 1369 1301 889 
Q 1547 409 2034 409 
Q 2525 409 2770 889 
Q 3016 1369 3016 2328 
Q 3016 3291 2770 3770 
Q 2525 4250 2034 4250 
z
M 2034 4750 
Q 2819 4750 3233 4129 
Q 3647 3509 3647 2328 
Q 3647 1150 3233 529 
Q 2819 -91 2034 -91 
Q 1250 -91 836 529 
Q 422 1150 422 2328 
Q 422 3509 836 4129 
Q 1250 4750 2034 4750 
z
" transform="scale(0.015625)"/>
        <path id="DejaVuSans-2e" d="M 684 794 
L 1344 794 
L 1344 0 
L 684 0 
L 684 794 
z
" transform="scale(0.015625)"/>
        <path id="DejaVuSans-36" d="M 2113 2584 
Q 1688 2584 1439 2293 
Q 1191 2003 1191 1497 
Q 1191 994 1439 701 
Q 1688 409 2113 409 
Q 2538 409 2786 701 
Q 3034 994 3034 1497 
Q 3034 2003 2786 2293 
Q 2538 2584 2113 2584 
z
M 3366 4563 
L 3366 3988 
Q 3128 4100 2886 4159 
Q 2644 4219 2406 4219 
Q 1781 4219 1451 3797 
Q 1122 3375 1075 2522 
Q 1259 2794 1537 2939 
Q 1816 3084 2150 3084 
Q 2853 3084 3261 2657 
Q 3669 2231 3669 1497 
Q 3669 778 3244 343 
Q 2819 -91 2113 -91 
Q 1303 -91 875 529 
Q 447 1150 447 2328 
Q 447 3434 972 4092 
Q 1497 4750 2381 4750 
Q 2619 4750 2861 4703 
Q 3103 4656 3366 4563 
z
" transform="scale(0.015625)"/>
       </defs>
       <use xlink:href="#DejaVuSans-30"/>
       <use xlink:href="#DejaVuSans-2e" transform="translate(63.623047 0)"/>
       <use xlink:href="#DejaVuSans-36" transform="translate(95.410156 0)"/>
      </g>
     </g>
    </g>
    <g id="xtick_2">
     <g id="line2d_2">
      <g>
       <use xlink:href="#m49055690c1" x="170.104995" y="154.44327" style="stroke: #000000; stroke-width: 0.8"/>
      </g>
     </g>
     <g id="text_2">
      <!-- 0.8 -->
      <g transform="translate(162.153432 169.041708) scale(0.1 -0.1)">
       <defs>
        <path id="DejaVuSans-38" d="M 2034 2216 
Q 1584 2216 1326 1975 
Q 1069 1734 1069 1313 
Q 1069 891 1326 650 
Q 1584 409 2034 409 
Q 2484 409 2743 651 
Q 3003 894 3003 1313 
Q 3003 1734 2745 1975 
Q 2488 2216 2034 2216 
z
M 1403 2484 
Q 997 2584 770 2862 
Q 544 3141 544 3541 
Q 544 4100 942 4425 
Q 1341 4750 2034 4750 
Q 2731 4750 3128 4425 
Q 3525 4100 3525 3541 
Q 3525 3141 3298 2862 
Q 3072 2584 2669 2484 
Q 3125 2378 3379 2068 
Q 3634 1759 3634 1313 
Q 3634 634 3220 271 
Q 2806 -91 2034 -91 
Q 1263 -91 848 271 
Q 434 634 434 1313 
Q 434 1759 690 2068 
Q 947 2378 1403 2484 
z
M 1172 3481 
Q 1172 3119 1398 2916 
Q 1625 2713 2034 2713 
Q 2441 2713 2670 2916 
Q 2900 3119 2900 3481 
Q 2900 3844 2670 4047 
Q 2441 4250 2034 4250 
Q 1625 4250 1398 4047 
Q 1172 3844 1172 3481 
z
" transform="scale(0.015625)"/>
       </defs>
       <use xlink:href="#DejaVuSans-30"/>
       <use xlink:href="#DejaVuSans-2e" transform="translate(63.623047 0)"/>
       <use xlink:href="#DejaVuSans-38" transform="translate(95.410156 0)"/>
      </g>
     </g>
    </g>
    <g id="xtick_3">
     <g id="line2d_3">
      <g>
       <use xlink:href="#m49055690c1" x="233.660621" y="154.44327" style="stroke: #000000; stroke-width: 0.8"/>
      </g>
     </g>
     <g id="text_3">
      <!-- 1.0 -->
      <g transform="translate(225.709059 169.041708) scale(0.1 -0.1)">
       <defs>
        <path id="DejaVuSans-31" d="M 794 531 
L 1825 531 
L 1825 4091 
L 703 3866 
L 703 4441 
L 1819 4666 
L 2450 4666 
L 2450 531 
L 3481 531 
L 3481 0 
L 794 0 
L 794 531 
z
" transform="scale(0.015625)"/>
       </defs>
       <use xlink:href="#DejaVuSans-31"/>
       <use xlink:href="#DejaVuSans-2e" transform="translate(63.623047 0)"/>
       <use xlink:href="#DejaVuSans-30" transform="translate(95.410156 0)"/>
      </g>
     </g>
    </g>
    <g id="text_4">
     <!-- token-level mean ratio -->
     <g transform="translate(89.71226 182.719833) scale(0.1 -0.1)">
      <defs>
       <path id="DejaVuSans-74" d="M 1172 4494 
L 1172 3500 
L 2356 3500 
L 2356 3053 
L 1172 3053 
L 1172 1153 
Q 1172 725 1289 603 
Q 1406 481 1766 481 
L 2356 481 
L 2356 0 
L 1766 0 
Q 1100 0 847 248 
Q 594 497 594 1153 
L 594 3053 
L 172 3053 
L 172 3500 
L 594 3500 
L 594 4494 
L 1172 4494 
z
" transform="scale(0.015625)"/>
       <path id="DejaVuSans-6f" d="M 1959 3097 
Q 1497 3097 1228 2736 
Q 959 2375 959 1747 
Q 959 1119 1226 758 
Q 1494 397 1959 397 
Q 2419 397 2687 759 
Q 2956 1122 2956 1747 
Q 2956 2369 2687 2733 
Q 2419 3097 1959 3097 
z
M 1959 3584 
Q 2709 3584 3137 3096 
Q 3566 2609 3566 1747 
Q 3566 888 3137 398 
Q 2709 -91 1959 -91 
Q 1206 -91 779 398 
Q 353 888 353 1747 
Q 353 2609 779 3096 
Q 1206 3584 1959 3584 
z
" transform="scale(0.015625)"/>
       <path id="DejaVuSans-6b" d="M 581 4863 
L 1159 4863 
L 1159 1991 
L 2875 3500 
L 3609 3500 
L 1753 1863 
L 3688 0 
L 2938 0 
L 1159 1709 
L 1159 0 
L 581 0 
L 581 4863 
z
" transform="scale(0.015625)"/>
       <path id="DejaVuSans-65" d="M 3597 1894 
L 3597 1613 
L 953 1613 
Q 991 1019 1311 708 
Q 1631 397 2203 397 
Q 2534 397 2845 478 
Q 3156 559 3463 722 
L 3463 178 
Q 3153 47 2828 -22 
Q 2503 -91 2169 -91 
Q 1331 -91 842 396 
Q 353 884 353 1716 
Q 353 2575 817 3079 
Q 1281 3584 2069 3584 
Q 2775 3584 3186 3129 
Q 3597 2675 3597 1894 
z
M 3022 2063 
Q 3016 2534 2758 2815 
Q 2500 3097 2075 3097 
Q 1594 3097 1305 2825 
Q 1016 2553 972 2059 
L 3022 2063 
z
" transform="scale(0.015625)"/>
       <path id="DejaVuSans-6e" d="M 3513 2113 
L 3513 0 
L 2938 0 
L 2938 2094 
Q 2938 2591 2744 2837 
Q 2550 3084 2163 3084 
Q 1697 3084 1428 2787 
Q 1159 2491 1159 1978 
L 1159 0 
L 581 0 
L 581 3500 
L 1159 3500 
L 1159 2956 
Q 1366 3272 1645 3428 
Q 1925 3584 2291 3584 
Q 2894 3584 3203 3211 
Q 3513 2838 3513 2113 
z
" transform="scale(0.015625)"/>
       <path id="DejaVuSans-2d" d="M 313 2009 
L 1997 2009 
L 1997 1497 
L 313 1497 
L 313 2009 
z
" transform="scale(0.015625)"/>
       <path id="DejaVuSans-6c" d="M 603 4863 
L 1178 4863 
L 1178 0 
L 603 0 
L 603 4863 
z
" transform="scale(0.015625)"/>
       <path id="DejaVuSans-76" d="M 191 3500 
L 800 3500 
L 1894 563 
L 2988 3500 
L 3597 3500 
L 2284 0 
L 1503 0 
L 191 3500 
z
" transform="scale(0.015625)"/>
       <path id="DejaVuSans-20" transform="scale(0.015625)"/>
       <path id="DejaVuSans-6d" d="M 3328 2828 
Q 3544 3216 3844 3400 
Q 4144 3584 4550 3584 
Q 5097 3584 5394 3201 
Q 5691 2819 5691 2113 
L 5691 0 
L 5113 0 
L 5113 2094 
Q 5113 2597 4934 2840 
Q 4756 3084 4391 3084 
Q 3944 3084 3684 2787 
Q 3425 2491 3425 1978 
L 3425 0 
L 2847 0 
L 2847 2094 
Q 2847 2600 2669 2842 
Q 2491 3084 2119 3084 
Q 1678 3084 1418 2786 
Q 1159 2488 1159 1978 
L 1159 0 
L 581 0 
L 581 3500 
L 1159 3500 
L 1159 2956 
Q 1356 3278 1631 3431 
Q 1906 3584 2284 3584 
Q 2666 3584 2933 3390 
Q 3200 3197 3328 2828 
z
" transform="scale(0.015625)"/>
       <path id="DejaVuSans-61" d="M 2194 1759 
Q 1497 1759 1228 1600 
Q 959 1441 959 1056 
Q 959 750 1161 570 
Q 1363 391 1709 391 
Q 2188 391 2477 730 
Q 2766 1069 2766 1631 
L 2766 1759 
L 2194 1759 
z
M 3341 1997 
L 3341 0 
L 2766 0 
L 2766 531 
Q 2569 213 2275 61 
Q 1981 -91 1556 -91 
Q 1019 -91 701 211 
Q 384 513 384 1019 
Q 384 1609 779 1909 
Q 1175 2209 1959 2209 
L 2766 2209 
L 2766 2266 
Q 2766 2663 2505 2880 
Q 2244 3097 1772 3097 
Q 1472 3097 1187 3025 
Q 903 2953 641 2809 
L 641 3341 
Q 956 3463 1253 3523 
Q 1550 3584 1831 3584 
Q 2591 3584 2966 3190 
Q 3341 2797 3341 1997 
z
" transform="scale(0.015625)"/>
       <path id="DejaVuSans-72" d="M 2631 2963 
Q 2534 3019 2420 3045 
Q 2306 3072 2169 3072 
Q 1681 3072 1420 2755 
Q 1159 2438 1159 1844 
L 1159 0 
L 581 0 
L 581 3500 
L 1159 3500 
L 1159 2956 
Q 1341 3275 1631 3429 
Q 1922 3584 2338 3584 
Q 2397 3584 2469 3576 
Q 2541 3569 2628 3553 
L 2631 2963 
z
" transform="scale(0.015625)"/>
       <path id="DejaVuSans-69" d="M 603 3500 
L 1178 3500 
L 1178 0 
L 603 0 
L 603 3500 
z
M 603 4863 
L 1178 4863 
L 1178 4134 
L 603 4134 
L 603 4863 
z
" transform="scale(0.015625)"/>
      </defs>
      <use xlink:href="#DejaVuSans-74"/>
      <use xlink:href="#DejaVuSans-6f" transform="translate(39.208984 0)"/>
      <use xlink:href="#DejaVuSans-6b" transform="translate(100.390625 0)"/>
      <use xlink:href="#DejaVuSans-65" transform="translate(154.675781 0)"/>
      <use xlink:href="#DejaVuSans-6e" transform="translate(216.199219 0)"/>
      <use xlink:href="#DejaVuSans-2d" transform="translate(279.578125 0)"/>
      <use xlink:href="#DejaVuSans-6c" transform="translate(315.662109 0)"/>
      <use xlink:href="#DejaVuSans-65" transform="translate(343.445312 0)"/>
      <use xlink:href="#DejaVuSans-76" transform="translate(404.96875 0)"/>
      <use xlink:href="#DejaVuSans-65" transform="translate(464.148438 0)"/>
      <use xlink:href="#DejaVuSans-6c" transform="translate(525.671875 0)"/>
      <use xlink:href="#DejaVuSans-20" transform="translate(553.455078 0)"/>
      <use xlink:href="#DejaVuSans-6d" transform="translate(585.242188 0)"/>
      <use xlink:href="#DejaVuSans-65" transform="translate(682.654297 0)"/>
      <use xlink:href="#DejaVuSans-61" transform="translate(744.177734 0)"/>
      <use xlink:href="#DejaVuSans-6e" transform="translate(805.457031 0)"/>
      <use xlink:href="#DejaVuSans-20" transform="translate(868.835938 0)"/>
      <use xlink:href="#DejaVuSans-72" transform="translate(900.623047 0)"/>
      <use xlink:href="#DejaVuSans-61" transform="translate(941.736328 0)"/>
      <use xlink:href="#DejaVuSans-74" transform="translate(1003.015625 0)"/>
      <use xlink:href="#DejaVuSans-69" transform="translate(1042.224609 0)"/>
      <use xlink:href="#DejaVuSans-6f" transform="translate(1070.007812 0)"/>
     </g>
    </g>
   </g>
   <g id="matplotlib.axis_2">
    <g id="ytick_1">
     <g id="line2d_4">
      <path d="M 50.14375 154.44327 
L 242.39952 154.44327 
" clip-path="url(#p97ee0637ae)" style="fill: none; stroke: #e5e7eb; stroke-width: 0.8; stroke-linecap: square"/>
     </g>
     <g id="line2d_5">
      <defs>
       <path id="m85659ab9c3" d="M 0 0 
L -3.5 0 
" style="stroke: #000000; stroke-width: 0.8"/>
      </defs>
      <g>
       <use xlink:href="#m85659ab9c3" x="50.14375" y="154.44327" style="stroke: #000000; stroke-width: 0.8"/>
      </g>
     </g>
     <g id="text_5">
      <!-- 0.0 -->
      <g transform="translate(27.240625 158.242489) scale(0.1 -0.1)">
       <use xlink:href="#DejaVuSans-30"/>
       <use xlink:href="#DejaVuSans-2e" transform="translate(63.623047 0)"/>
       <use xlink:href="#DejaVuSans-30" transform="translate(95.410156 0)"/>
      </g>
     </g>
    </g>
    <g id="ytick_2">
     <g id="line2d_6">
      <path d="M 50.14375 125.829645 
L 242.39952 125.829645 
" clip-path="url(#p97ee0637ae)" style="fill: none; stroke: #e5e7eb; stroke-width: 0.8; stroke-linecap: square"/>
     </g>
     <g id="line2d_7">
      <g>
       <use xlink:href="#m85659ab9c3" x="50.14375" y="125.829645" style="stroke: #000000; stroke-width: 0.8"/>
      </g>
     </g>
     <g id="text_6">
      <!-- 2.5 -->
      <g transform="translate(27.240625 129.628863) scale(0.1 -0.1)">
       <defs>
        <path id="DejaVuSans-32" d="M 1228 531 
L 3431 531 
L 3431 0 
L 469 0 
L 469 531 
Q 828 903 1448 1529 
Q 2069 2156 2228 2338 
Q 2531 2678 2651 2914 
Q 2772 3150 2772 3378 
Q 2772 3750 2511 3984 
Q 2250 4219 1831 4219 
Q 1534 4219 1204 4116 
Q 875 4013 500 3803 
L 500 4441 
Q 881 4594 1212 4672 
Q 1544 4750 1819 4750 
Q 2544 4750 2975 4387 
Q 3406 4025 3406 3419 
Q 3406 3131 3298 2873 
Q 3191 2616 2906 2266 
Q 2828 2175 2409 1742 
Q 1991 1309 1228 531 
z
" transform="scale(0.015625)"/>
        <path id="DejaVuSans-35" d="M 691 4666 
L 3169 4666 
L 3169 4134 
L 1269 4134 
L 1269 2991 
Q 1406 3038 1543 3061 
Q 1681 3084 1819 3084 
Q 2600 3084 3056 2656 
Q 3513 2228 3513 1497 
Q 3513 744 3044 326 
Q 2575 -91 1722 -91 
Q 1428 -91 1123 -41 
Q 819 9 494 109 
L 494 744 
Q 775 591 1075 516 
Q 1375 441 1709 441 
Q 2250 441 2565 725 
Q 2881 1009 2881 1497 
Q 2881 1984 2565 2268 
Q 2250 2553 1709 2553 
Q 1456 2553 1204 2497 
Q 953 2441 691 2322 
L 691 4666 
z
" transform="scale(0.015625)"/>
       </defs>
       <use xlink:href="#DejaVuSans-32"/>
       <use xlink:href="#DejaVuSans-2e" transform="translate(63.623047 0)"/>
       <use xlink:href="#DejaVuSans-35" transform="translate(95.410156 0)"/>
      </g>
     </g>
    </g>
    <g id="ytick_3">
     <g id="line2d_8">
      <path d="M 50.14375 97.216019 
L 242.39952 97.216019 
" clip-path="url(#p97ee0637ae)" style="fill: none; stroke: #e5e7eb; stroke-width: 0.8; stroke-linecap: square"/>
     </g>
     <g id="line2d_9">
      <g>
       <use xlink:href="#m85659ab9c3" x="50.14375" y="97.216019" style="stroke: #000000; stroke-width: 0.8"/>
      </g>
     </g>
     <g id="text_7">
      <!-- 5.0 -->
      <g transform="translate(27.240625 101.015238) scale(0.1 -0.1)">
       <use xlink:href="#DejaVuSans-35"/>
       <use xlink:href="#DejaVuSans-2e" transform="translate(63.623047 0)"/>
       <use xlink:href="#DejaVuSans-30" transform="translate(95.410156 0)"/>
      </g>
     </g>
    </g>
    <g id="ytick_4">
     <g id="line2d_10">
      <path d="M 50.14375 68.602394 
L 242.39952 68.602394 
" clip-path="url(#p97ee0637ae)" style="fill: none; stroke: #e5e7eb; stroke-width: 0.8; stroke-linecap: square"/>
     </g>
     <g id="line2d_11">
      <g>
       <use xlink:href="#m85659ab9c3" x="50.14375" y="68.602394" style="stroke: #000000; stroke-width: 0.8"/>
      </g>
     </g>
     <g id="text_8">
      <!-- 7.5 -->
      <g transform="translate(27.240625 72.401612) scale(0.1 -0.1)">
       <defs>
        <path id="DejaVuSans-37" d="M 525 4666 
L 3525 4666 
L 3525 4397 
L 1831 0 
L 1172 0 
L 2766 4134 
L 525 4134 
L 525 4666 
z
" transform="scale(0.015625)"/>
       </defs>
       <use xlink:href="#DejaVuSans-37"/>
       <use xlink:href="#DejaVuSans-2e" transform="translate(63.623047 0)"/>
       <use xlink:href="#DejaVuSans-35" transform="translate(95.410156 0)"/>
      </g>
     </g>
    </g>
    <g id="ytick_5">
     <g id="line2d_12">
      <path d="M 50.14375 39.988768 
L 242.39952 39.988768 
" clip-path="url(#p97ee0637ae)" style="fill: none; stroke: #e5e7eb; stroke-width: 0.8; stroke-linecap: square"/>
     </g>
     <g id="line2d_13">
      <g>
       <use xlink:href="#m85659ab9c3" x="50.14375" y="39.988768" style="stroke: #000000; stroke-width: 0.8"/>
      </g>
     </g>
     <g id="text_9">
      <!-- 10.0 -->
      <g transform="translate(20.878125 43.787987) scale(0.1 -0.1)">
       <use xlink:href="#DejaVuSans-31"/>
       <use xlink:href="#DejaVuSans-30" transform="translate(63.623047 0)"/>
       <use xlink:href="#DejaVuSans-2e" transform="translate(127.246094 0)"/>
       <use xlink:href="#DejaVuSans-30" transform="translate(159.033203 0)"/>
      </g>
     </g>
    </g>
    <g id="text_10">
     <!-- density -->
     <g transform="translate(14.798438 113.996688) rotate(-90) scale(0.1 -0.1)">
      <defs>
       <path id="DejaVuSans-64" d="M 2906 2969 
L 2906 4863 
L 3481 4863 
L 3481 0 
L 2906 0 
L 2906 525 
Q 2725 213 2448 61 
Q 2172 -91 1784 -91 
Q 1150 -91 751 415 
Q 353 922 353 1747 
Q 353 2572 751 3078 
Q 1150 3584 1784 3584 
Q 2172 3584 2448 3432 
Q 2725 3281 2906 2969 
z
M 947 1747 
Q 947 1113 1208 752 
Q 1469 391 1925 391 
Q 2381 391 2643 752 
Q 2906 1113 2906 1747 
Q 2906 2381 2643 2742 
Q 2381 3103 1925 3103 
Q 1469 3103 1208 2742 
Q 947 2381 947 1747 
z
" transform="scale(0.015625)"/>
       <path id="DejaVuSans-73" d="M 2834 3397 
L 2834 2853 
Q 2591 2978 2328 3040 
Q 2066 3103 1784 3103 
Q 1356 3103 1142 2972 
Q 928 2841 928 2578 
Q 928 2378 1081 2264 
Q 1234 2150 1697 2047 
L 1894 2003 
Q 2506 1872 2764 1633 
Q 3022 1394 3022 966 
Q 3022 478 2636 193 
Q 2250 -91 1575 -91 
Q 1294 -91 989 -36 
Q 684 19 347 128 
L 347 722 
Q 666 556 975 473 
Q 1284 391 1588 391 
Q 1994 391 2212 530 
Q 2431 669 2431 922 
Q 2431 1156 2273 1281 
Q 2116 1406 1581 1522 
L 1381 1569 
Q 847 1681 609 1914 
Q 372 2147 372 2553 
Q 372 3047 722 3315 
Q 1072 3584 1716 3584 
Q 2034 3584 2315 3537 
Q 2597 3491 2834 3397 
z
" transform="scale(0.015625)"/>
       <path id="DejaVuSans-79" d="M 2059 -325 
Q 1816 -950 1584 -1140 
Q 1353 -1331 966 -1331 
L 506 -1331 
L 506 -850 
L 844 -850 
Q 1081 -850 1212 -737 
Q 1344 -625 1503 -206 
L 1606 56 
L 191 3500 
L 800 3500 
L 1894 763 
L 2988 3500 
L 3597 3500 
L 2059 -325 
z
" transform="scale(0.015625)"/>
      </defs>
      <use xlink:href="#DejaVuSans-64"/>
      <use xlink:href="#DejaVuSans-65" transform="translate(63.476562 0)"/>
      <use xlink:href="#DejaVuSans-6e" transform="translate(125 0)"/>
      <use xlink:href="#DejaVuSans-73" transform="translate(188.378906 0)"/>
      <use xlink:href="#DejaVuSans-69" transform="translate(240.478516 0)"/>
      <use xlink:href="#DejaVuSans-74" transform="translate(268.261719 0)"/>
      <use xlink:href="#DejaVuSans-79" transform="translate(307.470703 0)"/>
     </g>
    </g>
   </g>
   <g id="patch_5">
    <path d="M 58.882649 154.44327 
L 58.882649 154.44327 
L 64.520648 154.44327 
L 64.520648 154.44327 
L 70.158647 154.44327 
L 70.158647 154.44327 
L 75.796646 154.44327 
L 75.796646 154.44327 
L 81.434645 154.44327 
L 81.434645 153.542282 
L 87.072644 153.542282 
L 87.072644 149.938332 
L 92.710643 149.938332 
L 92.710643 148.136356 
L 98.348642 148.136356 
L 98.348642 138.225491 
L 103.986642 138.225491 
L 103.986642 145.433393 
L 109.624641 145.433393 
L 109.624641 142.73043 
L 115.26264 142.73043 
L 115.26264 142.73043 
L 120.900639 142.73043 
L 120.900639 143.631418 
L 126.538638 143.631418 
L 126.538638 142.73043 
L 132.176637 142.73043 
L 132.176637 138.225491 
L 137.814636 138.225491 
L 137.814636 135.522528 
L 143.452635 135.522528 
L 143.452635 140.928455 
L 149.090635 140.928455 
L 149.090635 140.928455 
L 154.728634 140.928455 
L 154.728634 138.225491 
L 160.366633 138.225491 
L 160.366633 134.621541 
L 166.004632 134.621541 
L 166.004632 123.809688 
L 171.642631 123.809688 
L 171.642631 102.185983 
L 177.28063 102.185983 
L 177.28063 98.582033 
L 182.918629 98.582033 
L 182.918629 103.086971 
L 188.556628 103.086971 
L 188.556628 105.789934 
L 194.194628 105.789934 
L 194.194628 95.87907 
L 199.832627 95.87907 
L 199.832627 85.067217 
L 205.470626 85.067217 
L 205.470626 110.294873 
L 211.108625 110.294873 
L 211.108625 115.700799 
L 216.746624 115.700799 
L 216.746624 140.928455 
L 222.384623 140.928455 
L 222.384623 153.542282 
L 228.022622 153.542282 
L 228.022622 154.44327 
L 233.660621 154.44327 
L 233.660621 154.44327 
" clip-path="url(#p97ee0637ae)" style="fill: none; stroke: #16a34a; stroke-width: 1.45; stroke-linejoin: miter"/>
   </g>
   <g id="line2d_14">
    <path d="M 183.039321 154.44327 
L 183.039321 36.88448 
" clip-path="url(#p97ee0637ae)" style="fill: none; stroke-dasharray: 3.7,1.6; stroke-dashoffset: 0; stroke: #16a34a"/>
   </g>
   <g id="patch_6">
    <path d="M 58.882649 154.44327 
L 58.882649 154.44327 
L 64.520648 154.44327 
L 64.520648 154.44327 
L 70.158647 154.44327 
L 70.158647 154.44327 
L 75.796646 154.44327 
L 75.796646 154.44327 
L 81.434645 154.44327 
L 81.434645 154.44327 
L 87.072644 154.44327 
L 87.072644 149.111806 
L 92.710643 149.111806 
L 92.710643 154.44327 
L 98.348642 154.44327 
L 98.348642 154.44327 
L 103.986642 154.44327 
L 103.986642 154.44327 
L 109.624641 154.44327 
L 109.624641 154.44327 
L 115.26264 154.44327 
L 115.26264 154.44327 
L 120.900639 154.44327 
L 120.900639 149.111806 
L 126.538638 149.111806 
L 126.538638 149.111806 
L 132.176637 149.111806 
L 132.176637 149.111806 
L 137.814636 149.111806 
L 137.814636 138.448877 
L 143.452635 138.448877 
L 143.452635 138.448877 
L 149.090635 138.448877 
L 149.090635 138.448877 
L 154.728634 138.448877 
L 154.728634 143.780341 
L 160.366633 143.780341 
L 160.366633 127.785948 
L 166.004632 127.785948 
L 166.004632 133.117412 
L 171.642631 133.117412 
L 171.642631 79.802768 
L 177.28063 79.802768 
L 177.28063 106.46009 
L 182.918629 106.46009 
L 182.918629 106.46009 
L 188.556628 106.46009 
L 188.556628 111.791555 
L 194.194628 111.791555 
L 194.194628 95.797162 
L 199.832627 95.797162 
L 199.832627 42.482518 
L 205.470626 42.482518 
L 205.470626 106.46009 
L 211.108625 106.46009 
L 211.108625 90.465697 
L 216.746624 90.465697 
L 216.746624 133.117412 
L 222.384623 133.117412 
L 222.384623 154.44327 
L 228.022622 154.44327 
L 228.022622 154.44327 
L 233.660621 154.44327 
L 233.660621 154.44327 
" clip-path="url(#p97ee0637ae)" style="fill: none; stroke: #dc2626; stroke-width: 1.45; stroke-linejoin: miter"/>
   </g>
   <g id="line2d_15">
    <path d="M 192.00325 154.44327 
L 192.00325 36.88448 
" clip-path="url(#p97ee0637ae)" style="fill: none; stroke-dasharray: 3.7,1.6; stroke-dashoffset: 0; stroke: #dc2626"/>
   </g>
   <g id="line2d_16">
    <path d="M 201.882808 154.44327 
L 201.882808 36.88448 
" clip-path="url(#p97ee0637ae)" style="fill: none; stroke-dasharray: 1,1.65; stroke-dashoffset: 0; stroke: #111827"/>
   </g>
   <g id="patch_7">
    <path d="M 50.14375 154.44327 
L 50.14375 36.88448 
" style="fill: none; stroke: #cbd5e1; stroke-width: 0.8; stroke-linejoin: miter; stroke-linecap: square"/>
   </g>
   <g id="patch_8">
    <path d="M 50.14375 154.44327 
L 242.39952 154.44327 
" style="fill: none; stroke: #cbd5e1; stroke-width: 0.8; stroke-linejoin: miter; stroke-linecap: square"/>
   </g>
   <g id="text_11">
    <!-- Object-token $T/(T+I)$ -->
    <g transform="translate(91.023635 30.88448) scale(0.096 -0.096)">
     <defs>
      <path id="DejaVuSans-Bold-4f" d="M 2719 3878 
Q 2169 3878 1866 3472 
Q 1563 3066 1563 2328 
Q 1563 1594 1866 1187 
Q 2169 781 2719 781 
Q 3272 781 3575 1187 
Q 3878 1594 3878 2328 
Q 3878 3066 3575 3472 
Q 3272 3878 2719 3878 
z
M 2719 4750 
Q 3844 4750 4481 4106 
Q 5119 3463 5119 2328 
Q 5119 1197 4481 553 
Q 3844 -91 2719 -91 
Q 1597 -91 958 553 
Q 319 1197 319 2328 
Q 319 3463 958 4106 
Q 1597 4750 2719 4750 
z
" transform="scale(0.015625)"/>
      <path id="DejaVuSans-Bold-62" d="M 2400 722 
Q 2759 722 2948 984 
Q 3138 1247 3138 1747 
Q 3138 2247 2948 2509 
Q 2759 2772 2400 2772 
Q 2041 2772 1848 2508 
Q 1656 2244 1656 1747 
Q 1656 1250 1848 986 
Q 2041 722 2400 722 
z
M 1656 2988 
Q 1888 3294 2169 3439 
Q 2450 3584 2816 3584 
Q 3463 3584 3878 3070 
Q 4294 2556 4294 1747 
Q 4294 938 3878 423 
Q 3463 -91 2816 -91 
Q 2450 -91 2169 54 
Q 1888 200 1656 506 
L 1656 0 
L 538 0 
L 538 4863 
L 1656 4863 
L 1656 2988 
z
" transform="scale(0.015625)"/>
      <path id="DejaVuSans-Bold-6a" d="M 538 3500 
L 1656 3500 
L 1656 63 
Q 1656 -641 1318 -1011 
Q 981 -1381 341 -1381 
L -213 -1381 
L -213 -647 
L -19 -647 
Q 300 -647 419 -503 
Q 538 -359 538 63 
L 538 3500 
z
M 538 4863 
L 1656 4863 
L 1656 3950 
L 538 3950 
L 538 4863 
z
" transform="scale(0.015625)"/>
      <path id="DejaVuSans-Bold-65" d="M 4031 1759 
L 4031 1441 
L 1416 1441 
Q 1456 1047 1700 850 
Q 1944 653 2381 653 
Q 2734 653 3104 758 
Q 3475 863 3866 1075 
L 3866 213 
Q 3469 63 3072 -14 
Q 2675 -91 2278 -91 
Q 1328 -91 801 392 
Q 275 875 275 1747 
Q 275 2603 792 3093 
Q 1309 3584 2216 3584 
Q 3041 3584 3536 3087 
Q 4031 2591 4031 1759 
z
M 2881 2131 
Q 2881 2450 2695 2645 
Q 2509 2841 2209 2841 
Q 1884 2841 1681 2658 
Q 1478 2475 1428 2131 
L 2881 2131 
z
" transform="scale(0.015625)"/>
      <path id="DejaVuSans-Bold-63" d="M 3366 3391 
L 3366 2478 
Q 3138 2634 2908 2709 
Q 2678 2784 2431 2784 
Q 1963 2784 1702 2511 
Q 1441 2238 1441 1747 
Q 1441 1256 1702 982 
Q 1963 709 2431 709 
Q 2694 709 2930 787 
Q 3166 866 3366 1019 
L 3366 103 
Q 3103 6 2833 -42 
Q 2563 -91 2291 -91 
Q 1344 -91 809 395 
Q 275 881 275 1747 
Q 275 2613 809 3098 
Q 1344 3584 2291 3584 
Q 2566 3584 2833 3536 
Q 3100 3488 3366 3391 
z
" transform="scale(0.015625)"/>
      <path id="DejaVuSans-Bold-74" d="M 1759 4494 
L 1759 3500 
L 2913 3500 
L 2913 2700 
L 1759 2700 
L 1759 1216 
Q 1759 972 1856 886 
Q 1953 800 2241 800 
L 2816 800 
L 2816 0 
L 1856 0 
Q 1194 0 917 276 
Q 641 553 641 1216 
L 641 2700 
L 84 2700 
L 84 3500 
L 641 3500 
L 641 4494 
L 1759 4494 
z
" transform="scale(0.015625)"/>
      <path id="DejaVuSans-Bold-2d" d="M 347 2297 
L 2309 2297 
L 2309 1388 
L 347 1388 
L 347 2297 
z
" transform="scale(0.015625)"/>
      <path id="DejaVuSans-Bold-6f" d="M 2203 2784 
Q 1831 2784 1636 2517 
Q 1441 2250 1441 1747 
Q 1441 1244 1636 976 
Q 1831 709 2203 709 
Q 2569 709 2762 976 
Q 2956 1244 2956 1747 
Q 2956 2250 2762 2517 
Q 2569 2784 2203 2784 
z
M 2203 3584 
Q 3106 3584 3614 3096 
Q 4122 2609 4122 1747 
Q 4122 884 3614 396 
Q 3106 -91 2203 -91 
Q 1297 -91 786 396 
Q 275 884 275 1747 
Q 275 2609 786 3096 
Q 1297 3584 2203 3584 
z
" transform="scale(0.015625)"/>
      <path id="DejaVuSans-Bold-6b" d="M 538 4863 
L 1656 4863 
L 1656 2216 
L 2944 3500 
L 4244 3500 
L 2534 1894 
L 4378 0 
L 3022 0 
L 1656 1459 
L 1656 0 
L 538 0 
L 538 4863 
z
" transform="scale(0.015625)"/>
      <path id="DejaVuSans-Bold-6e" d="M 4056 2131 
L 4056 0 
L 2931 0 
L 2931 347 
L 2931 1631 
Q 2931 2084 2911 2256 
Q 2891 2428 2841 2509 
Q 2775 2619 2662 2680 
Q 2550 2741 2406 2741 
Q 2056 2741 1856 2470 
Q 1656 2200 1656 1722 
L 1656 0 
L 538 0 
L 538 3500 
L 1656 3500 
L 1656 2988 
Q 1909 3294 2193 3439 
Q 2478 3584 2822 3584 
Q 3428 3584 3742 3212 
Q 4056 2841 4056 2131 
z
" transform="scale(0.015625)"/>
      <path id="DejaVuSans-Bold-20" transform="scale(0.015625)"/>
      <path id="DejaVuSans-Oblique-54" d="M 378 4666 
L 4325 4666 
L 4225 4134 
L 2559 4134 
L 1759 0 
L 1125 0 
L 1925 4134 
L 275 4134 
L 378 4666 
z
" transform="scale(0.015625)"/>
      <path id="DejaVuSans-2f" d="M 1625 4666 
L 2156 4666 
L 531 -594 
L 0 -594 
L 1625 4666 
z
" transform="scale(0.015625)"/>
      <path id="DejaVuSans-28" d="M 1984 4856 
Q 1566 4138 1362 3434 
Q 1159 2731 1159 2009 
Q 1159 1288 1364 580 
Q 1569 -128 1984 -844 
L 1484 -844 
Q 1016 -109 783 600 
Q 550 1309 550 2009 
Q 550 2706 781 3412 
Q 1013 4119 1484 4856 
L 1984 4856 
z
" transform="scale(0.015625)"/>
      <path id="DejaVuSans-2b" d="M 2944 4013 
L 2944 2272 
L 4684 2272 
L 4684 1741 
L 2944 1741 
L 2944 0 
L 2419 0 
L 2419 1741 
L 678 1741 
L 678 2272 
L 2419 2272 
L 2419 4013 
L 2944 4013 
z
" transform="scale(0.015625)"/>
      <path id="DejaVuSans-Oblique-49" d="M 1081 4666 
L 1716 4666 
L 806 0 
L 172 0 
L 1081 4666 
z
" transform="scale(0.015625)"/>
      <path id="DejaVuSans-29" d="M 513 4856 
L 1013 4856 
Q 1481 4119 1714 3412 
Q 1947 2706 1947 2009 
Q 1947 1309 1714 600 
Q 1481 -109 1013 -844 
L 513 -844 
Q 928 -128 1133 580 
Q 1338 1288 1338 2009 
Q 1338 2731 1133 3434 
Q 928 4138 513 4856 
z
" transform="scale(0.015625)"/>
     </defs>
     <use xlink:href="#DejaVuSans-Bold-4f" transform="translate(0 0.015625)"/>
     <use xlink:href="#DejaVuSans-Bold-62" transform="translate(85.009766 0.015625)"/>
     <use xlink:href="#DejaVuSans-Bold-6a" transform="translate(156.591797 0.015625)"/>
     <use xlink:href="#DejaVuSans-Bold-65" transform="translate(190.869141 0.015625)"/>
     <use xlink:href="#DejaVuSans-Bold-63" transform="translate(258.691406 0.015625)"/>
     <use xlink:href="#DejaVuSans-Bold-74" transform="translate(317.96875 0.015625)"/>
     <use xlink:href="#DejaVuSans-Bold-2d" transform="translate(365.771484 0.015625)"/>
     <use xlink:href="#DejaVuSans-Bold-74" transform="translate(407.275391 0.015625)"/>
     <use xlink:href="#DejaVuSans-Bold-6f" transform="translate(455.078125 0.015625)"/>
     <use xlink:href="#DejaVuSans-Bold-6b" transform="translate(523.779297 0.015625)"/>
     <use xlink:href="#DejaVuSans-Bold-65" transform="translate(590.283203 0.015625)"/>
     <use xlink:href="#DejaVuSans-Bold-6e" transform="translate(658.105469 0.015625)"/>
     <use xlink:href="#DejaVuSans-Bold-20" transform="translate(729.296875 0.015625)"/>
     <use xlink:href="#DejaVuSans-Oblique-54" transform="translate(764.111328 0.015625)"/>
     <use xlink:href="#DejaVuSans-2f" transform="translate(825.195312 0.015625)"/>
     <use xlink:href="#DejaVuSans-28" transform="translate(858.886719 0.015625)"/>
     <use xlink:href="#DejaVuSans-Oblique-54" transform="translate(897.900391 0.015625)"/>
     <use xlink:href="#DejaVuSans-2b" transform="translate(978.466797 0.015625)"/>
     <use xlink:href="#DejaVuSans-Oblique-49" transform="translate(1081.738281 0.015625)"/>
     <use xlink:href="#DejaVuSans-29" transform="translate(1111.230469 0.015625)"/>
    </g>
   </g>
   <g id="legend_1">
    <g id="patch_9">
     <path d="M 57.07375 49.665277 
L 72.47375 49.665277 
L 72.47375 44.275277 
L 57.07375 44.275277 
L 57.07375 49.665277 
z
" style="fill: none; stroke: #16a34a; stroke-width: 1.45; stroke-linejoin: miter"/>
    </g>
    <g id="text_12">
     <!-- grounded -->
     <g transform="translate(78.63375 49.665277) scale(0.077 -0.077)">
      <defs>
       <path id="DejaVuSans-67" d="M 2906 1791 
Q 2906 2416 2648 2759 
Q 2391 3103 1925 3103 
Q 1463 3103 1205 2759 
Q 947 2416 947 1791 
Q 947 1169 1205 825 
Q 1463 481 1925 481 
Q 2391 481 2648 825 
Q 2906 1169 2906 1791 
z
M 3481 434 
Q 3481 -459 3084 -895 
Q 2688 -1331 1869 -1331 
Q 1566 -1331 1297 -1286 
Q 1028 -1241 775 -1147 
L 775 -588 
Q 1028 -725 1275 -790 
Q 1522 -856 1778 -856 
Q 2344 -856 2625 -561 
Q 2906 -266 2906 331 
L 2906 616 
Q 2728 306 2450 153 
Q 2172 0 1784 0 
Q 1141 0 747 490 
Q 353 981 353 1791 
Q 353 2603 747 3093 
Q 1141 3584 1784 3584 
Q 2172 3584 2450 3431 
Q 2728 3278 2906 2969 
L 2906 3500 
L 3481 3500 
L 3481 434 
z
" transform="scale(0.015625)"/>
       <path id="DejaVuSans-75" d="M 544 1381 
L 544 3500 
L 1119 3500 
L 1119 1403 
Q 1119 906 1312 657 
Q 1506 409 1894 409 
Q 2359 409 2629 706 
Q 2900 1003 2900 1516 
L 2900 3500 
L 3475 3500 
L 3475 0 
L 2900 0 
L 2900 538 
Q 2691 219 2414 64 
Q 2138 -91 1772 -91 
Q 1169 -91 856 284 
Q 544 659 544 1381 
z
M 1991 3584 
L 1991 3584 
z
" transform="scale(0.015625)"/>
      </defs>
      <use xlink:href="#DejaVuSans-67"/>
      <use xlink:href="#DejaVuSans-72" transform="translate(63.476562 0)"/>
      <use xlink:href="#DejaVuSans-6f" transform="translate(102.339844 0)"/>
      <use xlink:href="#DejaVuSans-75" transform="translate(163.521484 0)"/>
      <use xlink:href="#DejaVuSans-6e" transform="translate(226.900391 0)"/>
      <use xlink:href="#DejaVuSans-64" transform="translate(290.279297 0)"/>
      <use xlink:href="#DejaVuSans-65" transform="translate(353.755859 0)"/>
      <use xlink:href="#DejaVuSans-64" transform="translate(415.279297 0)"/>
     </g>
    </g>
    <g id="patch_10">
     <path d="M 57.07375 60.967433 
L 72.47375 60.967433 
L 72.47375 55.577433 
L 57.07375 55.577433 
L 57.07375 60.967433 
z
" style="fill: none; stroke: #dc2626; stroke-width: 1.45; stroke-linejoin: miter"/>
    </g>
    <g id="text_13">
     <!-- hallucinated -->
     <g transform="translate(78.63375 60.967433) scale(0.077 -0.077)">
      <defs>
       <path id="DejaVuSans-68" d="M 3513 2113 
L 3513 0 
L 2938 0 
L 2938 2094 
Q 2938 2591 2744 2837 
Q 2550 3084 2163 3084 
Q 1697 3084 1428 2787 
Q 1159 2491 1159 1978 
L 1159 0 
L 581 0 
L 581 4863 
L 1159 4863 
L 1159 2956 
Q 1366 3272 1645 3428 
Q 1925 3584 2291 3584 
Q 2894 3584 3203 3211 
Q 3513 2838 3513 2113 
z
" transform="scale(0.015625)"/>
       <path id="DejaVuSans-63" d="M 3122 3366 
L 3122 2828 
Q 2878 2963 2633 3030 
Q 2388 3097 2138 3097 
Q 1578 3097 1268 2742 
Q 959 2388 959 1747 
Q 959 1106 1268 751 
Q 1578 397 2138 397 
Q 2388 397 2633 464 
Q 2878 531 3122 666 
L 3122 134 
Q 2881 22 2623 -34 
Q 2366 -91 2075 -91 
Q 1284 -91 818 406 
Q 353 903 353 1747 
Q 353 2603 823 3093 
Q 1294 3584 2113 3584 
Q 2378 3584 2631 3529 
Q 2884 3475 3122 3366 
z
" transform="scale(0.015625)"/>
      </defs>
      <use xlink:href="#DejaVuSans-68"/>
      <use xlink:href="#DejaVuSans-61" transform="translate(63.378906 0)"/>
      <use xlink:href="#DejaVuSans-6c" transform="translate(124.658203 0)"/>
      <use xlink:href="#DejaVuSans-6c" transform="translate(152.441406 0)"/>
      <use xlink:href="#DejaVuSans-75" transform="translate(180.224609 0)"/>
      <use xlink:href="#DejaVuSans-63" transform="translate(243.603516 0)"/>
      <use xlink:href="#DejaVuSans-69" transform="translate(298.583984 0)"/>
      <use xlink:href="#DejaVuSans-6e" transform="translate(326.367188 0)"/>
      <use xlink:href="#DejaVuSans-61" transform="translate(389.746094 0)"/>
      <use xlink:href="#DejaVuSans-74" transform="translate(451.025391 0)"/>
      <use xlink:href="#DejaVuSans-65" transform="translate(490.234375 0)"/>
      <use xlink:href="#DejaVuSans-64" transform="translate(551.757812 0)"/>
     </g>
    </g>
   </g>
  </g>
  <g id="axes_2">
   <g id="patch_11">
    <path d="M 291.34375 154.44327 
L 483.59952 154.44327 
L 483.59952 36.88448 
L 291.34375 36.88448 
z
" style="fill: #ffffff"/>
   </g>
   <g id="matplotlib.axis_3">
    <g id="xtick_4">
     <g id="line2d_17">
      <path d="M 300.082649 154.44327 
L 300.082649 36.88448 
" clip-path="url(#pfba8099c59)" style="fill: none; stroke: #e5e7eb; stroke-width: 0.8; stroke-linecap: square"/>
     </g>
     <g id="line2d_18">
      <g>
       <use xlink:href="#m49055690c1" x="300.082649" y="154.44327" style="stroke: #000000; stroke-width: 0.8"/>
      </g>
     </g>
     <g id="text_14">
      <!-- 0.0 -->
      <g transform="translate(292.131086 169.041708) scale(0.1 -0.1)">
       <use xlink:href="#DejaVuSans-30"/>
       <use xlink:href="#DejaVuSans-2e" transform="translate(63.623047 0)"/>
       <use xlink:href="#DejaVuSans-30" transform="translate(95.410156 0)"/>
      </g>
     </g>
    </g>
    <g id="xtick_5">
     <g id="line2d_19">
      <path d="M 335.038243 154.44327 
L 335.038243 36.88448 
" clip-path="url(#pfba8099c59)" style="fill: none; stroke: #e5e7eb; stroke-width: 0.8; stroke-linecap: square"/>
     </g>
     <g id="line2d_20">
      <g>
       <use xlink:href="#m49055690c1" x="335.038243" y="154.44327" style="stroke: #000000; stroke-width: 0.8"/>
      </g>
     </g>
     <g id="text_15">
      <!-- 0.2 -->
      <g transform="translate(327.086681 169.041708) scale(0.1 -0.1)">
       <use xlink:href="#DejaVuSans-30"/>
       <use xlink:href="#DejaVuSans-2e" transform="translate(63.623047 0)"/>
       <use xlink:href="#DejaVuSans-32" transform="translate(95.410156 0)"/>
      </g>
     </g>
    </g>
    <g id="xtick_6">
     <g id="line2d_21">
      <path d="M 369.993838 154.44327 
L 369.993838 36.88448 
" clip-path="url(#pfba8099c59)" style="fill: none; stroke: #e5e7eb; stroke-width: 0.8; stroke-linecap: square"/>
     </g>
     <g id="line2d_22">
      <g>
       <use xlink:href="#m49055690c1" x="369.993838" y="154.44327" style="stroke: #000000; stroke-width: 0.8"/>
      </g>
     </g>
     <g id="text_16">
      <!-- 0.4 -->
      <g transform="translate(362.042275 169.041708) scale(0.1 -0.1)">
       <defs>
        <path id="DejaVuSans-34" d="M 2419 4116 
L 825 1625 
L 2419 1625 
L 2419 4116 
z
M 2253 4666 
L 3047 4666 
L 3047 1625 
L 3713 1625 
L 3713 1100 
L 3047 1100 
L 3047 0 
L 2419 0 
L 2419 1100 
L 313 1100 
L 313 1709 
L 2253 4666 
z
" transform="scale(0.015625)"/>
       </defs>
       <use xlink:href="#DejaVuSans-30"/>
       <use xlink:href="#DejaVuSans-2e" transform="translate(63.623047 0)"/>
       <use xlink:href="#DejaVuSans-34" transform="translate(95.410156 0)"/>
      </g>
     </g>
    </g>
    <g id="xtick_7">
     <g id="line2d_23">
      <path d="M 404.949432 154.44327 
L 404.949432 36.88448 
" clip-path="url(#pfba8099c59)" style="fill: none; stroke: #e5e7eb; stroke-width: 0.8; stroke-linecap: square"/>
     </g>
     <g id="line2d_24">
      <g>
       <use xlink:href="#m49055690c1" x="404.949432" y="154.44327" style="stroke: #000000; stroke-width: 0.8"/>
      </g>
     </g>
     <g id="text_17">
      <!-- 0.6 -->
      <g transform="translate(396.99787 169.041708) scale(0.1 -0.1)">
       <use xlink:href="#DejaVuSans-30"/>
       <use xlink:href="#DejaVuSans-2e" transform="translate(63.623047 0)"/>
       <use xlink:href="#DejaVuSans-36" transform="translate(95.410156 0)"/>
      </g>
     </g>
    </g>
    <g id="xtick_8">
     <g id="line2d_25">
      <path d="M 439.905027 154.44327 
L 439.905027 36.88448 
" clip-path="url(#pfba8099c59)" style="fill: none; stroke: #e5e7eb; stroke-width: 0.8; stroke-linecap: square"/>
     </g>
     <g id="line2d_26">
      <g>
       <use xlink:href="#m49055690c1" x="439.905027" y="154.44327" style="stroke: #000000; stroke-width: 0.8"/>
      </g>
     </g>
     <g id="text_18">
      <!-- 0.8 -->
      <g transform="translate(431.953464 169.041708) scale(0.1 -0.1)">
       <use xlink:href="#DejaVuSans-30"/>
       <use xlink:href="#DejaVuSans-2e" transform="translate(63.623047 0)"/>
       <use xlink:href="#DejaVuSans-38" transform="translate(95.410156 0)"/>
      </g>
     </g>
    </g>
    <g id="xtick_9">
     <g id="line2d_27">
      <path d="M 474.860621 154.44327 
L 474.860621 36.88448 
" clip-path="url(#pfba8099c59)" style="fill: none; stroke: #e5e7eb; stroke-width: 0.8; stroke-linecap: square"/>
     </g>
     <g id="line2d_28">
      <g>
       <use xlink:href="#m49055690c1" x="474.860621" y="154.44327" style="stroke: #000000; stroke-width: 0.8"/>
      </g>
     </g>
     <g id="text_19">
      <!-- 1.0 -->
      <g transform="translate(466.909059 169.041708) scale(0.1 -0.1)">
       <use xlink:href="#DejaVuSans-31"/>
       <use xlink:href="#DejaVuSans-2e" transform="translate(63.623047 0)"/>
       <use xlink:href="#DejaVuSans-30" transform="translate(95.410156 0)"/>
      </g>
     </g>
    </g>
    <g id="text_20">
     <!-- grounded false-positive rate -->
     <g transform="translate(316.88726 182.719833) scale(0.1 -0.1)">
      <defs>
       <path id="DejaVuSans-66" d="M 2375 4863 
L 2375 4384 
L 1825 4384 
Q 1516 4384 1395 4259 
Q 1275 4134 1275 3809 
L 1275 3500 
L 2222 3500 
L 2222 3053 
L 1275 3053 
L 1275 0 
L 697 0 
L 697 3053 
L 147 3053 
L 147 3500 
L 697 3500 
L 697 3744 
Q 697 4328 969 4595 
Q 1241 4863 1831 4863 
L 2375 4863 
z
" transform="scale(0.015625)"/>
       <path id="DejaVuSans-70" d="M 1159 525 
L 1159 -1331 
L 581 -1331 
L 581 3500 
L 1159 3500 
L 1159 2969 
Q 1341 3281 1617 3432 
Q 1894 3584 2278 3584 
Q 2916 3584 3314 3078 
Q 3713 2572 3713 1747 
Q 3713 922 3314 415 
Q 2916 -91 2278 -91 
Q 1894 -91 1617 61 
Q 1341 213 1159 525 
z
M 3116 1747 
Q 3116 2381 2855 2742 
Q 2594 3103 2138 3103 
Q 1681 3103 1420 2742 
Q 1159 2381 1159 1747 
Q 1159 1113 1420 752 
Q 1681 391 2138 391 
Q 2594 391 2855 752 
Q 3116 1113 3116 1747 
z
" transform="scale(0.015625)"/>
      </defs>
      <use xlink:href="#DejaVuSans-67"/>
      <use xlink:href="#DejaVuSans-72" transform="translate(63.476562 0)"/>
      <use xlink:href="#DejaVuSans-6f" transform="translate(102.339844 0)"/>
      <use xlink:href="#DejaVuSans-75" transform="translate(163.521484 0)"/>
      <use xlink:href="#DejaVuSans-6e" transform="translate(226.900391 0)"/>
      <use xlink:href="#DejaVuSans-64" transform="translate(290.279297 0)"/>
      <use xlink:href="#DejaVuSans-65" transform="translate(353.755859 0)"/>
      <use xlink:href="#DejaVuSans-64" transform="translate(415.279297 0)"/>
      <use xlink:href="#DejaVuSans-20" transform="translate(478.755859 0)"/>
      <use xlink:href="#DejaVuSans-66" transform="translate(510.542969 0)"/>
      <use xlink:href="#DejaVuSans-61" transform="translate(545.748047 0)"/>
      <use xlink:href="#DejaVuSans-6c" transform="translate(607.027344 0)"/>
      <use xlink:href="#DejaVuSans-73" transform="translate(634.810547 0)"/>
      <use xlink:href="#DejaVuSans-65" transform="translate(686.910156 0)"/>
      <use xlink:href="#DejaVuSans-2d" transform="translate(748.433594 0)"/>
      <use xlink:href="#DejaVuSans-70" transform="translate(784.517578 0)"/>
      <use xlink:href="#DejaVuSans-6f" transform="translate(847.994141 0)"/>
      <use xlink:href="#DejaVuSans-73" transform="translate(909.175781 0)"/>
      <use xlink:href="#DejaVuSans-69" transform="translate(961.275391 0)"/>
      <use xlink:href="#DejaVuSans-74" transform="translate(989.058594 0)"/>
      <use xlink:href="#DejaVuSans-69" transform="translate(1028.267578 0)"/>
      <use xlink:href="#DejaVuSans-76" transform="translate(1056.050781 0)"/>
      <use xlink:href="#DejaVuSans-65" transform="translate(1115.230469 0)"/>
      <use xlink:href="#DejaVuSans-20" transform="translate(1176.753906 0)"/>
      <use xlink:href="#DejaVuSans-72" transform="translate(1208.541016 0)"/>
      <use xlink:href="#DejaVuSans-61" transform="translate(1249.654297 0)"/>
      <use xlink:href="#DejaVuSans-74" transform="translate(1310.933594 0)"/>
      <use xlink:href="#DejaVuSans-65" transform="translate(1350.142578 0)"/>
     </g>
    </g>
   </g>
   <g id="matplotlib.axis_4">
    <g id="ytick_6">
     <g id="line2d_29">
      <path d="M 291.34375 149.099689 
L 483.59952 149.099689 
" clip-path="url(#pfba8099c59)" style="fill: none; stroke: #e5e7eb; stroke-width: 0.8; stroke-linecap: square"/>
     </g>
     <g id="line2d_30">
      <g>
       <use xlink:href="#m85659ab9c3" x="291.34375" y="149.099689" style="stroke: #000000; stroke-width: 0.8"/>
      </g>
     </g>
     <g id="text_21">
      <!-- 0.00 -->
      <g transform="translate(262.078125 152.898907) scale(0.1 -0.1)">
       <use xlink:href="#DejaVuSans-30"/>
       <use xlink:href="#DejaVuSans-2e" transform="translate(63.623047 0)"/>
       <use xlink:href="#DejaVuSans-30" transform="translate(95.410156 0)"/>
       <use xlink:href="#DejaVuSans-30" transform="translate(159.033203 0)"/>
      </g>
     </g>
    </g>
    <g id="ytick_7">
     <g id="line2d_31">
      <path d="M 291.34375 122.381782 
L 483.59952 122.381782 
" clip-path="url(#pfba8099c59)" style="fill: none; stroke: #e5e7eb; stroke-width: 0.8; stroke-linecap: square"/>
     </g>
     <g id="line2d_32">
      <g>
       <use xlink:href="#m85659ab9c3" x="291.34375" y="122.381782" style="stroke: #000000; stroke-width: 0.8"/>
      </g>
     </g>
     <g id="text_22">
      <!-- 0.25 -->
      <g transform="translate(262.078125 126.181001) scale(0.1 -0.1)">
       <use xlink:href="#DejaVuSans-30"/>
       <use xlink:href="#DejaVuSans-2e" transform="translate(63.623047 0)"/>
       <use xlink:href="#DejaVuSans-32" transform="translate(95.410156 0)"/>
       <use xlink:href="#DejaVuSans-35" transform="translate(159.033203 0)"/>
      </g>
     </g>
    </g>
    <g id="ytick_8">
     <g id="line2d_33">
      <path d="M 291.34375 95.663875 
L 483.59952 95.663875 
" clip-path="url(#pfba8099c59)" style="fill: none; stroke: #e5e7eb; stroke-width: 0.8; stroke-linecap: square"/>
     </g>
     <g id="line2d_34">
      <g>
       <use xlink:href="#m85659ab9c3" x="291.34375" y="95.663875" style="stroke: #000000; stroke-width: 0.8"/>
      </g>
     </g>
     <g id="text_23">
      <!-- 0.50 -->
      <g transform="translate(262.078125 99.463094) scale(0.1 -0.1)">
       <use xlink:href="#DejaVuSans-30"/>
       <use xlink:href="#DejaVuSans-2e" transform="translate(63.623047 0)"/>
       <use xlink:href="#DejaVuSans-35" transform="translate(95.410156 0)"/>
       <use xlink:href="#DejaVuSans-30" transform="translate(159.033203 0)"/>
      </g>
     </g>
    </g>
    <g id="ytick_9">
     <g id="line2d_35">
      <path d="M 291.34375 68.945968 
L 483.59952 68.945968 
" clip-path="url(#pfba8099c59)" style="fill: none; stroke: #e5e7eb; stroke-width: 0.8; stroke-linecap: square"/>
     </g>
     <g id="line2d_36">
      <g>
       <use xlink:href="#m85659ab9c3" x="291.34375" y="68.945968" style="stroke: #000000; stroke-width: 0.8"/>
      </g>
     </g>
     <g id="text_24">
      <!-- 0.75 -->
      <g transform="translate(262.078125 72.745187) scale(0.1 -0.1)">
       <use xlink:href="#DejaVuSans-30"/>
       <use xlink:href="#DejaVuSans-2e" transform="translate(63.623047 0)"/>
       <use xlink:href="#DejaVuSans-37" transform="translate(95.410156 0)"/>
       <use xlink:href="#DejaVuSans-35" transform="translate(159.033203 0)"/>
      </g>
     </g>
    </g>
    <g id="ytick_10">
     <g id="line2d_37">
      <path d="M 291.34375 42.228061 
L 483.59952 42.228061 
" clip-path="url(#pfba8099c59)" style="fill: none; stroke: #e5e7eb; stroke-width: 0.8; stroke-linecap: square"/>
     </g>
     <g id="line2d_38">
      <g>
       <use xlink:href="#m85659ab9c3" x="291.34375" y="42.228061" style="stroke: #000000; stroke-width: 0.8"/>
      </g>
     </g>
     <g id="text_25">
      <!-- 1.00 -->
      <g transform="translate(262.078125 46.02728) scale(0.1 -0.1)">
       <use xlink:href="#DejaVuSans-31"/>
       <use xlink:href="#DejaVuSans-2e" transform="translate(63.623047 0)"/>
       <use xlink:href="#DejaVuSans-30" transform="translate(95.410156 0)"/>
       <use xlink:href="#DejaVuSans-30" transform="translate(159.033203 0)"/>
      </g>
     </g>
    </g>
    <g id="text_26">
     <!-- hallucinated recall -->
     <g transform="translate(255.998437 141.625594) rotate(-90) scale(0.1 -0.1)">
      <use xlink:href="#DejaVuSans-68"/>
      <use xlink:href="#DejaVuSans-61" transform="translate(63.378906 0)"/>
      <use xlink:href="#DejaVuSans-6c" transform="translate(124.658203 0)"/>
      <use xlink:href="#DejaVuSans-6c" transform="translate(152.441406 0)"/>
      <use xlink:href="#DejaVuSans-75" transform="translate(180.224609 0)"/>
      <use xlink:href="#DejaVuSans-63" transform="translate(243.603516 0)"/>
      <use xlink:href="#DejaVuSans-69" transform="translate(298.583984 0)"/>
      <use xlink:href="#DejaVuSans-6e" transform="translate(326.367188 0)"/>
      <use xlink:href="#DejaVuSans-61" transform="translate(389.746094 0)"/>
      <use xlink:href="#DejaVuSans-74" transform="translate(451.025391 0)"/>
      <use xlink:href="#DejaVuSans-65" transform="translate(490.234375 0)"/>
      <use xlink:href="#DejaVuSans-64" transform="translate(551.757812 0)"/>
      <use xlink:href="#DejaVuSans-20" transform="translate(615.234375 0)"/>
      <use xlink:href="#DejaVuSans-72" transform="translate(647.021484 0)"/>
      <use xlink:href="#DejaVuSans-65" transform="translate(685.884766 0)"/>
      <use xlink:href="#DejaVuSans-63" transform="translate(747.408203 0)"/>
      <use xlink:href="#DejaVuSans-61" transform="translate(802.388672 0)"/>
      <use xlink:href="#DejaVuSans-6c" transform="translate(863.667969 0)"/>
      <use xlink:href="#DejaVuSans-6c" transform="translate(891.451172 0)"/>
     </g>
    </g>
   </g>
   <g id="line2d_39">
    <path d="M 300.082649 149.099689 
L 300.326752 149.099689 
L 300.326752 148.216452 
L 301.791372 148.216452 
L 301.791372 147.333215 
L 303.500095 147.333215 
L 303.500095 146.449979 
L 303.988302 146.449979 
L 303.988302 145.566742 
L 304.720612 145.566742 
L 304.720612 144.683506 
L 305.208818 144.683506 
L 305.208818 143.800269 
L 306.185231 143.800269 
L 306.185231 142.917033 
L 306.429335 142.917033 
L 306.429335 142.033796 
L 306.673438 142.033796 
L 306.673438 141.150559 
L 307.649851 141.150559 
L 307.649851 140.267323 
L 308.138058 140.267323 
L 308.138058 139.384086 
L 309.114471 139.384086 
L 309.114471 138.50085 
L 310.823194 138.50085 
L 310.823194 137.617613 
L 311.067298 137.617613 
L 311.067298 136.734376 
L 312.287814 136.734376 
L 312.287814 135.85114 
L 313.508331 135.85114 
L 313.508331 134.967903 
L 317.169881 134.967903 
L 317.169881 134.084667 
L 317.658087 134.084667 
L 317.658087 133.20143 
L 319.122707 133.20143 
L 319.122707 131.434957 
L 320.343224 131.434957 
L 320.343224 129.668484 
L 320.83143 129.668484 
L 320.83143 127.90201 
L 324.49298 127.90201 
L 324.49298 127.018774 
L 327.42222 127.018774 
L 327.42222 125.252301 
L 327.910426 125.252301 
L 327.910426 124.369064 
L 329.863253 124.369064 
L 329.863253 123.485828 
L 331.083769 123.485828 
L 331.083769 121.719354 
L 335.477629 121.719354 
L 335.477629 120.836118 
L 336.698146 120.836118 
L 336.698146 119.952881 
L 337.430456 119.952881 
L 337.430456 119.069645 
L 338.162766 119.069645 
L 338.162766 118.186408 
L 338.406869 118.186408 
L 338.406869 117.303171 
L 338.650972 117.303171 
L 338.650972 116.419935 
L 340.603799 116.419935 
L 340.603799 115.536698 
L 341.580212 115.536698 
L 341.580212 114.653462 
L 341.824315 114.653462 
L 341.824315 113.770225 
L 343.288935 113.770225 
L 343.288935 112.003752 
L 343.777142 112.003752 
L 343.777142 111.120515 
L 344.509452 111.120515 
L 344.509452 109.354042 
L 345.241762 109.354042 
L 345.241762 108.470806 
L 345.485865 108.470806 
L 345.485865 107.587569 
L 348.171001 107.587569 
L 348.171001 106.704332 
L 348.659208 106.704332 
L 348.659208 105.821096 
L 348.903311 105.821096 
L 348.903311 104.937859 
L 349.147415 104.937859 
L 349.147415 104.054623 
L 350.123828 104.054623 
L 350.123828 103.171386 
L 350.612035 103.171386 
L 350.612035 102.288149 
L 352.808964 102.288149 
L 352.808964 101.404913 
L 354.273584 101.404913 
L 354.273584 100.521676 
L 356.958721 100.521676 
L 356.958721 99.63844 
L 357.446927 99.63844 
L 357.446927 98.755203 
L 365.01413 98.755203 
L 365.01413 97.871966 
L 365.258233 97.871966 
L 365.258233 96.98873 
L 366.722853 96.98873 
L 366.722853 96.105493 
L 366.966957 96.105493 
L 366.966957 95.222257 
L 367.699267 95.222257 
L 367.699267 93.455784 
L 367.94337 93.455784 
L 367.94337 92.572547 
L 369.652093 92.572547 
L 369.652093 91.68931 
L 374.290056 91.68931 
L 374.290056 90.806074 
L 374.534159 90.806074 
L 374.534159 89.922837 
L 377.707502 89.922837 
L 377.707502 89.039601 
L 377.951606 89.039601 
L 377.951606 88.156364 
L 380.148536 88.156364 
L 380.148536 87.273127 
L 382.345465 87.273127 
L 382.345465 86.389891 
L 383.077775 86.389891 
L 383.077775 85.506654 
L 384.054189 85.506654 
L 384.054189 83.740181 
L 389.180358 83.740181 
L 389.180358 82.856944 
L 390.400875 82.856944 
L 390.400875 81.973708 
L 391.377288 81.973708 
L 391.377288 81.090471 
L 393.330115 81.090471 
L 393.330115 80.207235 
L 394.062424 80.207235 
L 394.062424 79.323998 
L 395.282941 79.323998 
L 395.282941 78.440762 
L 398.456284 78.440762 
L 398.456284 77.557525 
L 403.094247 77.557525 
L 403.094247 75.791052 
L 403.33835 75.791052 
L 403.33835 74.907815 
L 405.047074 74.907815 
L 405.047074 74.024579 
L 405.53528 74.024579 
L 405.53528 73.141342 
L 406.9999 73.141342 
L 406.9999 72.258105 
L 407.488107 72.258105 
L 407.488107 71.374869 
L 408.220417 71.374869 
L 408.220417 70.491632 
L 408.708623 70.491632 
L 408.708623 69.608396 
L 408.952727 69.608396 
L 408.952727 68.725159 
L 410.173243 68.725159 
L 410.173243 67.841922 
L 413.346586 67.841922 
L 413.346586 66.958686 
L 413.834793 66.958686 
L 413.834793 65.192213 
L 416.764033 65.192213 
L 416.764033 64.308976 
L 417.252239 64.308976 
L 417.252239 63.42574 
L 419.937376 63.42574 
L 419.937376 62.542503 
L 422.866616 62.542503 
L 422.866616 61.659266 
L 423.354822 61.659266 
L 423.354822 60.77603 
L 424.087132 60.77603 
L 424.087132 59.892793 
L 427.504578 59.892793 
L 427.504578 59.009557 
L 428.480992 59.009557 
L 428.480992 57.243083 
L 428.725095 57.243083 
L 428.725095 56.359847 
L 429.213302 56.359847 
L 429.213302 55.47661 
L 434.339471 55.47661 
L 434.339471 54.593374 
L 434.827678 54.593374 
L 434.827678 53.710137 
L 436.292298 53.710137 
L 436.292298 51.943664 
L 438.733331 51.943664 
L 438.733331 51.060427 
L 439.221538 51.060427 
L 439.221538 50.177191 
L 439.465641 50.177191 
L 439.465641 49.293954 
L 441.906674 49.293954 
L 441.906674 48.410717 
L 445.568224 48.410717 
L 445.568224 46.644244 
L 447.276947 46.644244 
L 447.276947 45.761008 
L 448.25336 45.761008 
L 448.25336 44.877771 
L 452.891323 44.877771 
L 452.891323 43.994535 
L 455.820563 43.994535 
L 455.820563 43.111298 
L 474.616518 43.111298 
L 474.616518 42.228061 
L 474.860621 42.228061 
L 474.860621 42.228061 
" clip-path="url(#pfba8099c59)" style="fill: none; stroke: #2563eb; stroke-width: 1.9; stroke-linecap: square"/>
   </g>
   <g id="line2d_40">
    <path d="M 300.082649 149.099689 
L 474.860621 42.228061 
" clip-path="url(#pfba8099c59)" style="fill: none; stroke-dasharray: 3.7,1.6; stroke-dashoffset: 0; stroke: #94a3b8"/>
   </g>
   <g id="patch_12">
    <path d="M 291.34375 154.44327 
L 291.34375 36.88448 
" style="fill: none; stroke: #cbd5e1; stroke-width: 0.8; stroke-linejoin: miter; stroke-linecap: square"/>
   </g>
   <g id="patch_13">
    <path d="M 291.34375 154.44327 
L 483.59952 154.44327 
" style="fill: none; stroke: #cbd5e1; stroke-width: 0.8; stroke-linejoin: miter; stroke-linecap: square"/>
   </g>
   <g id="text_27">
    <!-- AUC = 0.594 -->
    <g style="fill: #111827" transform="translate(401.453873 136.275093) scale(0.1 -0.1)">
     <defs>
      <path id="DejaVuSans-Bold-41" d="M 3419 850 
L 1538 850 
L 1241 0 
L 31 0 
L 1759 4666 
L 3194 4666 
L 4922 0 
L 3713 0 
L 3419 850 
z
M 1838 1716 
L 3116 1716 
L 2478 3572 
L 1838 1716 
z
" transform="scale(0.015625)"/>
      <path id="DejaVuSans-Bold-55" d="M 588 4666 
L 1791 4666 
L 1791 1869 
Q 1791 1291 1980 1042 
Q 2169 794 2597 794 
Q 3028 794 3217 1042 
Q 3406 1291 3406 1869 
L 3406 4666 
L 4609 4666 
L 4609 1869 
Q 4609 878 4112 393 
Q 3616 -91 2597 -91 
Q 1581 -91 1084 393 
Q 588 878 588 1869 
L 588 4666 
z
" transform="scale(0.015625)"/>
      <path id="DejaVuSans-Bold-43" d="M 4288 256 
Q 3956 84 3597 -3 
Q 3238 -91 2847 -91 
Q 1681 -91 1000 561 
Q 319 1213 319 2328 
Q 319 3447 1000 4098 
Q 1681 4750 2847 4750 
Q 3238 4750 3597 4662 
Q 3956 4575 4288 4403 
L 4288 3438 
Q 3953 3666 3628 3772 
Q 3303 3878 2944 3878 
Q 2300 3878 1931 3465 
Q 1563 3053 1563 2328 
Q 1563 1606 1931 1193 
Q 2300 781 2944 781 
Q 3303 781 3628 887 
Q 3953 994 4288 1222 
L 4288 256 
z
" transform="scale(0.015625)"/>
      <path id="DejaVuSans-Bold-3d" d="M 678 3084 
L 4684 3084 
L 4684 2350 
L 678 2350 
L 678 3084 
z
M 678 1663 
L 4684 1663 
L 4684 922 
L 678 922 
L 678 1663 
z
" transform="scale(0.015625)"/>
      <path id="DejaVuSans-Bold-30" d="M 2944 2338 
Q 2944 3213 2780 3570 
Q 2616 3928 2228 3928 
Q 1841 3928 1675 3570 
Q 1509 3213 1509 2338 
Q 1509 1453 1675 1090 
Q 1841 728 2228 728 
Q 2613 728 2778 1090 
Q 2944 1453 2944 2338 
z
M 4147 2328 
Q 4147 1169 3647 539 
Q 3147 -91 2228 -91 
Q 1306 -91 806 539 
Q 306 1169 306 2328 
Q 306 3491 806 4120 
Q 1306 4750 2228 4750 
Q 3147 4750 3647 4120 
Q 4147 3491 4147 2328 
z
" transform="scale(0.015625)"/>
      <path id="DejaVuSans-Bold-2e" d="M 653 1209 
L 1778 1209 
L 1778 0 
L 653 0 
L 653 1209 
z
" transform="scale(0.015625)"/>
      <path id="DejaVuSans-Bold-35" d="M 678 4666 
L 3669 4666 
L 3669 3781 
L 1638 3781 
L 1638 3059 
Q 1775 3097 1914 3117 
Q 2053 3138 2203 3138 
Q 3056 3138 3531 2711 
Q 4006 2284 4006 1522 
Q 4006 766 3489 337 
Q 2972 -91 2053 -91 
Q 1656 -91 1267 -14 
Q 878 63 494 219 
L 494 1166 
Q 875 947 1217 837 
Q 1559 728 1863 728 
Q 2300 728 2551 942 
Q 2803 1156 2803 1522 
Q 2803 1891 2551 2103 
Q 2300 2316 1863 2316 
Q 1603 2316 1309 2248 
Q 1016 2181 678 2041 
L 678 4666 
z
" transform="scale(0.015625)"/>
      <path id="DejaVuSans-Bold-39" d="M 641 103 
L 641 966 
Q 928 831 1190 764 
Q 1453 697 1709 697 
Q 2247 697 2547 995 
Q 2847 1294 2900 1881 
Q 2688 1725 2447 1647 
Q 2206 1569 1925 1569 
Q 1209 1569 770 1986 
Q 331 2403 331 3084 
Q 331 3838 820 4291 
Q 1309 4744 2131 4744 
Q 3044 4744 3544 4128 
Q 4044 3513 4044 2388 
Q 4044 1231 3459 570 
Q 2875 -91 1856 -91 
Q 1528 -91 1228 -42 
Q 928 6 641 103 
z
M 2125 2350 
Q 2441 2350 2600 2554 
Q 2759 2759 2759 3169 
Q 2759 3575 2600 3781 
Q 2441 3988 2125 3988 
Q 1809 3988 1650 3781 
Q 1491 3575 1491 3169 
Q 1491 2759 1650 2554 
Q 1809 2350 2125 2350 
z
" transform="scale(0.015625)"/>
      <path id="DejaVuSans-Bold-34" d="M 2356 3675 
L 1038 1722 
L 2356 1722 
L 2356 3675 
z
M 2156 4666 
L 3494 4666 
L 3494 1722 
L 4159 1722 
L 4159 850 
L 3494 850 
L 3494 0 
L 2356 0 
L 2356 850 
L 288 850 
L 288 1881 
L 2156 4666 
z
" transform="scale(0.015625)"/>
     </defs>
     <use xlink:href="#DejaVuSans-Bold-41"/>
     <use xlink:href="#DejaVuSans-Bold-55" transform="translate(74.267578 0)"/>
     <use xlink:href="#DejaVuSans-Bold-43" transform="translate(155.46875 0)"/>
     <use xlink:href="#DejaVuSans-Bold-20" transform="translate(228.857422 0)"/>
     <use xlink:href="#DejaVuSans-Bold-3d" transform="translate(263.671875 0)"/>
     <use xlink:href="#DejaVuSans-Bold-20" transform="translate(347.460938 0)"/>
     <use xlink:href="#DejaVuSans-Bold-30" transform="translate(382.275391 0)"/>
     <use xlink:href="#DejaVuSans-Bold-2e" transform="translate(451.855469 0)"/>
     <use xlink:href="#DejaVuSans-Bold-35" transform="translate(489.84375 0)"/>
     <use xlink:href="#DejaVuSans-Bold-39" transform="translate(559.423828 0)"/>
     <use xlink:href="#DejaVuSans-Bold-34" transform="translate(629.003906 0)"/>
    </g>
   </g>
   <g id="text_28">
    <!-- Detector test -->
    <g transform="translate(351.504635 30.88448) scale(0.096 -0.096)">
     <defs>
      <path id="DejaVuSans-Bold-44" d="M 1791 3756 
L 1791 909 
L 2222 909 
Q 2959 909 3348 1275 
Q 3738 1641 3738 2338 
Q 3738 3031 3350 3393 
Q 2963 3756 2222 3756 
L 1791 3756 
z
M 588 4666 
L 1856 4666 
Q 2919 4666 3439 4514 
Q 3959 4363 4331 4000 
Q 4659 3684 4818 3271 
Q 4978 2859 4978 2338 
Q 4978 1809 4818 1395 
Q 4659 981 4331 666 
Q 3956 303 3431 151 
Q 2906 0 1856 0 
L 588 0 
L 588 4666 
z
" transform="scale(0.015625)"/>
      <path id="DejaVuSans-Bold-72" d="M 3138 2547 
Q 2991 2616 2845 2648 
Q 2700 2681 2553 2681 
Q 2122 2681 1889 2404 
Q 1656 2128 1656 1613 
L 1656 0 
L 538 0 
L 538 3500 
L 1656 3500 
L 1656 2925 
Q 1872 3269 2151 3426 
Q 2431 3584 2822 3584 
Q 2878 3584 2943 3579 
Q 3009 3575 3134 3559 
L 3138 2547 
z
" transform="scale(0.015625)"/>
      <path id="DejaVuSans-Bold-73" d="M 3272 3391 
L 3272 2541 
Q 2913 2691 2578 2766 
Q 2244 2841 1947 2841 
Q 1628 2841 1473 2761 
Q 1319 2681 1319 2516 
Q 1319 2381 1436 2309 
Q 1553 2238 1856 2203 
L 2053 2175 
Q 2913 2066 3209 1816 
Q 3506 1566 3506 1031 
Q 3506 472 3093 190 
Q 2681 -91 1863 -91 
Q 1516 -91 1145 -36 
Q 775 19 384 128 
L 384 978 
Q 719 816 1070 734 
Q 1422 653 1784 653 
Q 2113 653 2278 743 
Q 2444 834 2444 1013 
Q 2444 1163 2330 1236 
Q 2216 1309 1875 1350 
L 1678 1375 
Q 931 1469 631 1722 
Q 331 1975 331 2491 
Q 331 3047 712 3315 
Q 1094 3584 1881 3584 
Q 2191 3584 2531 3537 
Q 2872 3491 3272 3391 
z
" transform="scale(0.015625)"/>
     </defs>
     <use xlink:href="#DejaVuSans-Bold-44"/>
     <use xlink:href="#DejaVuSans-Bold-65" transform="translate(83.007812 0)"/>
     <use xlink:href="#DejaVuSans-Bold-74" transform="translate(150.830078 0)"/>
     <use xlink:href="#DejaVuSans-Bold-65" transform="translate(198.632812 0)"/>
     <use xlink:href="#DejaVuSans-Bold-63" transform="translate(266.455078 0)"/>
     <use xlink:href="#DejaVuSans-Bold-74" transform="translate(325.732422 0)"/>
     <use xlink:href="#DejaVuSans-Bold-6f" transform="translate(373.535156 0)"/>
     <use xlink:href="#DejaVuSans-Bold-72" transform="translate(442.236328 0)"/>
     <use xlink:href="#DejaVuSans-Bold-20" transform="translate(491.552734 0)"/>
     <use xlink:href="#DejaVuSans-Bold-74" transform="translate(526.367188 0)"/>
     <use xlink:href="#DejaVuSans-Bold-65" transform="translate(574.169922 0)"/>
     <use xlink:href="#DejaVuSans-Bold-73" transform="translate(641.992188 0)"/>
     <use xlink:href="#DejaVuSans-Bold-74" transform="translate(701.513672 0)"/>
    </g>
   </g>
  </g>
  <g id="text_29">
   <!-- $r = T/(T+I)$ is useful as a control signal, not a token detector -->
   <g transform="translate(66.94876 15.256) scale(0.106 -0.106)">
    <defs>
     <path id="DejaVuSans-Oblique-72" d="M 2853 2969 
Q 2766 3016 2653 3041 
Q 2541 3066 2413 3066 
Q 1953 3066 1609 2717 
Q 1266 2369 1153 1784 
L 800 0 
L 225 0 
L 909 3500 
L 1484 3500 
L 1375 2956 
Q 1603 3259 1920 3421 
Q 2238 3584 2597 3584 
Q 2691 3584 2781 3573 
Q 2872 3563 2963 3538 
L 2853 2969 
z
" transform="scale(0.015625)"/>
     <path id="DejaVuSans-3d" d="M 678 2906 
L 4684 2906 
L 4684 2381 
L 678 2381 
L 678 2906 
z
M 678 1631 
L 4684 1631 
L 4684 1100 
L 678 1100 
L 678 1631 
z
" transform="scale(0.015625)"/>
     <path id="DejaVuSans-Bold-69" d="M 538 3500 
L 1656 3500 
L 1656 0 
L 538 0 
L 538 3500 
z
M 538 4863 
L 1656 4863 
L 1656 3950 
L 538 3950 
L 538 4863 
z
" transform="scale(0.015625)"/>
     <path id="DejaVuSans-Bold-75" d="M 500 1363 
L 500 3500 
L 1625 3500 
L 1625 3150 
Q 1625 2866 1622 2436 
Q 1619 2006 1619 1863 
Q 1619 1441 1641 1255 
Q 1663 1069 1716 984 
Q 1784 875 1895 815 
Q 2006 756 2150 756 
Q 2500 756 2700 1025 
Q 2900 1294 2900 1772 
L 2900 3500 
L 4019 3500 
L 4019 0 
L 2900 0 
L 2900 506 
Q 2647 200 2364 54 
Q 2081 -91 1741 -91 
Q 1134 -91 817 281 
Q 500 653 500 1363 
z
" transform="scale(0.015625)"/>
     <path id="DejaVuSans-Bold-66" d="M 2841 4863 
L 2841 4128 
L 2222 4128 
Q 1984 4128 1890 4042 
Q 1797 3956 1797 3744 
L 1797 3500 
L 2753 3500 
L 2753 2700 
L 1797 2700 
L 1797 0 
L 678 0 
L 678 2700 
L 122 2700 
L 122 3500 
L 678 3500 
L 678 3744 
Q 678 4316 997 4589 
Q 1316 4863 1984 4863 
L 2841 4863 
z
" transform="scale(0.015625)"/>
     <path id="DejaVuSans-Bold-6c" d="M 538 4863 
L 1656 4863 
L 1656 0 
L 538 0 
L 538 4863 
z
" transform="scale(0.015625)"/>
     <path id="DejaVuSans-Bold-61" d="M 2106 1575 
Q 1756 1575 1579 1456 
Q 1403 1338 1403 1106 
Q 1403 894 1545 773 
Q 1688 653 1941 653 
Q 2256 653 2472 879 
Q 2688 1106 2688 1447 
L 2688 1575 
L 2106 1575 
z
M 3816 1997 
L 3816 0 
L 2688 0 
L 2688 519 
Q 2463 200 2181 54 
Q 1900 -91 1497 -91 
Q 953 -91 614 226 
Q 275 544 275 1050 
Q 275 1666 698 1953 
Q 1122 2241 2028 2241 
L 2688 2241 
L 2688 2328 
Q 2688 2594 2478 2717 
Q 2269 2841 1825 2841 
Q 1466 2841 1156 2769 
Q 847 2697 581 2553 
L 581 3406 
Q 941 3494 1303 3539 
Q 1666 3584 2028 3584 
Q 2975 3584 3395 3211 
Q 3816 2838 3816 1997 
z
" transform="scale(0.015625)"/>
     <path id="DejaVuSans-Bold-67" d="M 2919 594 
Q 2688 288 2409 144 
Q 2131 0 1766 0 
Q 1125 0 706 504 
Q 288 1009 288 1791 
Q 288 2575 706 3076 
Q 1125 3578 1766 3578 
Q 2131 3578 2409 3434 
Q 2688 3291 2919 2981 
L 2919 3500 
L 4044 3500 
L 4044 353 
Q 4044 -491 3511 -936 
Q 2978 -1381 1966 -1381 
Q 1638 -1381 1331 -1331 
Q 1025 -1281 716 -1178 
L 716 -306 
Q 1009 -475 1290 -558 
Q 1572 -641 1856 -641 
Q 2406 -641 2662 -400 
Q 2919 -159 2919 353 
L 2919 594 
z
M 2181 2772 
Q 1834 2772 1640 2515 
Q 1447 2259 1447 1791 
Q 1447 1309 1634 1061 
Q 1822 813 2181 813 
Q 2531 813 2725 1069 
Q 2919 1325 2919 1791 
Q 2919 2259 2725 2515 
Q 2531 2772 2181 2772 
z
" transform="scale(0.015625)"/>
     <path id="DejaVuSans-Bold-2c" d="M 653 1209 
L 1778 1209 
L 1778 256 
L 1006 -909 
L 341 -909 
L 653 256 
L 653 1209 
z
" transform="scale(0.015625)"/>
     <path id="DejaVuSans-Bold-64" d="M 2919 2988 
L 2919 4863 
L 4044 4863 
L 4044 0 
L 2919 0 
L 2919 506 
Q 2688 197 2409 53 
Q 2131 -91 1766 -91 
Q 1119 -91 703 423 
Q 288 938 288 1747 
Q 288 2556 703 3070 
Q 1119 3584 1766 3584 
Q 2128 3584 2408 3439 
Q 2688 3294 2919 2988 
z
M 2181 722 
Q 2541 722 2730 984 
Q 2919 1247 2919 1747 
Q 2919 2247 2730 2509 
Q 2541 2772 2181 2772 
Q 1825 2772 1636 2509 
Q 1447 2247 1447 1747 
Q 1447 1247 1636 984 
Q 1825 722 2181 722 
z
" transform="scale(0.015625)"/>
    </defs>
    <use xlink:href="#DejaVuSans-Oblique-72" transform="translate(0 0.015625)"/>
    <use xlink:href="#DejaVuSans-3d" transform="translate(60.595703 0.015625)"/>
    <use xlink:href="#DejaVuSans-Oblique-54" transform="translate(163.867188 0.015625)"/>
    <use xlink:href="#DejaVuSans-2f" transform="translate(224.951172 0.015625)"/>
    <use xlink:href="#DejaVuSans-28" transform="translate(258.642578 0.015625)"/>
    <use xlink:href="#DejaVuSans-Oblique-54" transform="translate(297.65625 0.015625)"/>
    <use xlink:href="#DejaVuSans-2b" transform="translate(378.222656 0.015625)"/>
    <use xlink:href="#DejaVuSans-Oblique-49" transform="translate(481.494141 0.015625)"/>
    <use xlink:href="#DejaVuSans-29" transform="translate(510.986328 0.015625)"/>
    <use xlink:href="#DejaVuSans-Bold-20" transform="translate(550 0.015625)"/>
    <use xlink:href="#DejaVuSans-Bold-69" transform="translate(584.814453 0.015625)"/>
    <use xlink:href="#DejaVuSans-Bold-73" transform="translate(619.091797 0.015625)"/>
    <use xlink:href="#DejaVuSans-Bold-20" transform="translate(678.613281 0.015625)"/>
    <use xlink:href="#DejaVuSans-Bold-75" transform="translate(713.427734 0.015625)"/>
    <use xlink:href="#DejaVuSans-Bold-73" transform="translate(784.619141 0.015625)"/>
    <use xlink:href="#DejaVuSans-Bold-65" transform="translate(844.140625 0.015625)"/>
    <use xlink:href="#DejaVuSans-Bold-66" transform="translate(911.962891 0.015625)"/>
    <use xlink:href="#DejaVuSans-Bold-75" transform="translate(955.46875 0.015625)"/>
    <use xlink:href="#DejaVuSans-Bold-6c" transform="translate(1026.660156 0.015625)"/>
    <use xlink:href="#DejaVuSans-Bold-20" transform="translate(1060.9375 0.015625)"/>
    <use xlink:href="#DejaVuSans-Bold-61" transform="translate(1095.751953 0.015625)"/>
    <use xlink:href="#DejaVuSans-Bold-73" transform="translate(1163.232422 0.015625)"/>
    <use xlink:href="#DejaVuSans-Bold-20" transform="translate(1222.753906 0.015625)"/>
    <use xlink:href="#DejaVuSans-Bold-61" transform="translate(1257.568359 0.015625)"/>
    <use xlink:href="#DejaVuSans-Bold-20" transform="translate(1325.048828 0.015625)"/>
    <use xlink:href="#DejaVuSans-Bold-63" transform="translate(1359.863281 0.015625)"/>
    <use xlink:href="#DejaVuSans-Bold-6f" transform="translate(1419.140625 0.015625)"/>
    <use xlink:href="#DejaVuSans-Bold-6e" transform="translate(1487.841797 0.015625)"/>
    <use xlink:href="#DejaVuSans-Bold-74" transform="translate(1559.033203 0.015625)"/>
    <use xlink:href="#DejaVuSans-Bold-72" transform="translate(1606.835938 0.015625)"/>
    <use xlink:href="#DejaVuSans-Bold-6f" transform="translate(1656.152344 0.015625)"/>
    <use xlink:href="#DejaVuSans-Bold-6c" transform="translate(1724.853516 0.015625)"/>
    <use xlink:href="#DejaVuSans-Bold-20" transform="translate(1759.130859 0.015625)"/>
    <use xlink:href="#DejaVuSans-Bold-73" transform="translate(1793.945312 0.015625)"/>
    <use xlink:href="#DejaVuSans-Bold-69" transform="translate(1853.466797 0.015625)"/>
    <use xlink:href="#DejaVuSans-Bold-67" transform="translate(1887.744141 0.015625)"/>
    <use xlink:href="#DejaVuSans-Bold-6e" transform="translate(1959.326172 0.015625)"/>
    <use xlink:href="#DejaVuSans-Bold-61" transform="translate(2030.517578 0.015625)"/>
    <use xlink:href="#DejaVuSans-Bold-6c" transform="translate(2097.998047 0.015625)"/>
    <use xlink:href="#DejaVuSans-Bold-2c" transform="translate(2132.275391 0.015625)"/>
    <use xlink:href="#DejaVuSans-Bold-20" transform="translate(2170.263672 0.015625)"/>
    <use xlink:href="#DejaVuSans-Bold-6e" transform="translate(2205.078125 0.015625)"/>
    <use xlink:href="#DejaVuSans-Bold-6f" transform="translate(2276.269531 0.015625)"/>
    <use xlink:href="#DejaVuSans-Bold-74" transform="translate(2344.970703 0.015625)"/>
    <use xlink:href="#DejaVuSans-Bold-20" transform="translate(2392.773438 0.015625)"/>
    <use xlink:href="#DejaVuSans-Bold-61" transform="translate(2427.587891 0.015625)"/>
    <use xlink:href="#DejaVuSans-Bold-20" transform="translate(2495.068359 0.015625)"/>
    <use xlink:href="#DejaVuSans-Bold-74" transform="translate(2529.882812 0.015625)"/>
    <use xlink:href="#DejaVuSans-Bold-6f" transform="translate(2577.685547 0.015625)"/>
    <use xlink:href="#DejaVuSans-Bold-6b" transform="translate(2646.386719 0.015625)"/>
    <use xlink:href="#DejaVuSans-Bold-65" transform="translate(2712.890625 0.015625)"/>
    <use xlink:href="#DejaVuSans-Bold-6e" transform="translate(2780.712891 0.015625)"/>
    <use xlink:href="#DejaVuSans-Bold-20" transform="translate(2851.904297 0.015625)"/>
    <use xlink:href="#DejaVuSans-Bold-64" transform="translate(2886.71875 0.015625)"/>
    <use xlink:href="#DejaVuSans-Bold-65" transform="translate(2958.300781 0.015625)"/>
    <use xlink:href="#DejaVuSans-Bold-74" transform="translate(3026.123047 0.015625)"/>
    <use xlink:href="#DejaVuSans-Bold-65" transform="translate(3073.925781 0.015625)"/>
    <use xlink:href="#DejaVuSans-Bold-63" transform="translate(3141.748047 0.015625)"/>
    <use xlink:href="#DejaVuSans-Bold-74" transform="translate(3201.025391 0.015625)"/>
    <use xlink:href="#DejaVuSans-Bold-6f" transform="translate(3248.828125 0.015625)"/>
    <use xlink:href="#DejaVuSans-Bold-72" transform="translate(3317.529297 0.015625)"/>
   </g>
  </g>
 </g>
 <defs>
  <clipPath id="p97ee0637ae">
   <rect x="50.14375" y="36.88448" width="192.25577" height="117.55879"/>
  </clipPath>
  <clipPath id="pfba8099c59">
   <rect x="291.34375" y="36.88448" width="192.25577" height="117.55879"/>
  </clipPath>
 </defs>
</svg>
